<svg version="1.1" id="Layer_1" xmlns="http://www.w3.org/2000/svg" xmlns:xlink="http://www.w3.org/1999/xlink" x="0px" y="0px"
	 width="100%" viewBox="0 0 2000 2000" enable-background="new 0 0 2000 2000" xml:space="preserve">
<path fill="#545454" opacity="1.000000" stroke="none" 
	d="
M2001.000000,740.000000 
	C2001.000000,1160.666626 2001.000000,1580.833374 2001.000000,2001.000000 
	C1334.333374,2001.000000 667.666687,2001.000000 1.000000,2001.000000 
	C1.000000,1334.333374 1.000000,667.666687 1.000000,1.000000 
	C667.666687,1.000000 1334.333374,1.000000 2001.000000,1.000000 
	C2001.000000,247.166672 2001.000000,493.333344 2001.000000,740.000000 
M948.949829,516.068298 
	C947.695618,515.046265 946.441345,514.024231 945.123352,512.066895 
	C945.144653,490.378174 945.165955,468.689453 946.087280,447.000153 
	C1224.008911,447.000122 1501.930664,447.000458 1779.852295,446.993103 
	C1782.015137,446.993042 1784.402344,447.428711 1786.267212,446.654785 
	C1787.673584,446.071106 1788.411133,443.875977 1789.446289,442.398041 
	C1787.844727,441.798065 1786.231079,440.674835 1784.644409,440.711792 
	C1781.740112,440.779480 1778.852051,441.941284 1775.957031,441.941956 
	C1499.035156,442.003998 1222.113281,441.999451 945.125854,441.064331 
	C945.095398,396.568420 944.678345,352.068085 945.191345,307.578430 
	C945.463562,283.971069 922.428711,263.748901 901.408630,263.849060 
	C828.749451,264.195404 756.087646,263.955353 683.426819,263.994659 
	C658.820984,264.007996 639.017151,283.929016 638.998230,308.512329 
	C638.963989,353.008209 638.935913,397.504120 637.986450,442.000000 
	C501.689636,442.000000 365.392792,442.003967 229.095978,441.975342 
	C225.949341,441.974701 222.799667,441.439270 219.657745,441.497009 
	C218.488632,441.518463 217.337646,442.526947 216.178406,443.085327 
	C216.999588,444.326233 217.574936,446.245453 218.698288,446.652588 
	C220.482407,447.299164 222.632477,446.991913 224.627731,446.992035 
	C358.425232,447.000854 492.222717,447.009277 626.020203,446.958008 
	C630.319580,446.956360 634.618774,446.334412 638.956299,446.937988 
	C638.969482,503.151917 638.978577,559.365845 639.009094,615.579773 
	C639.010498,618.235535 639.202515,620.891235 639.103333,623.919617 
	C639.103333,623.919617 638.965271,624.320618 638.370422,624.553101 
	C621.111023,638.421265 603.851685,652.289368 585.572266,666.091858 
	C565.409729,666.061218 545.247131,666.030640 525.041687,665.130798 
	C524.234741,642.485046 503.305847,622.042542 480.633820,622.024048 
	C408.334778,621.965271 336.035614,621.987549 263.736511,622.008118 
	C239.167038,622.015076 218.052750,642.999817 218.045456,667.534363 
	C218.014359,771.984863 218.041290,876.435425 218.037399,981.845581 
	C218.034851,1025.604858 218.016983,1069.364258 218.034988,1113.123535 
	C218.047577,1143.737427 218.109192,1174.351196 218.104080,1205.905762 
	C218.086197,1206.905396 218.052643,1207.905151 218.052628,1208.904785 
	C218.049789,1399.550171 218.070694,1590.195557 217.937378,1780.840820 
	C217.933685,1786.118774 219.719131,1787.160156 224.565170,1787.153931 
	C321.387543,1787.029785 418.210114,1787.059570 515.032654,1787.069946 
	C517.696472,1787.070312 520.360229,1787.198975 523.204590,1787.934814 
	C525.102051,1788.954712 526.995178,1790.854736 528.897705,1790.864136 
	C564.362793,1791.040649 599.829468,1791.049805 635.294189,1790.832764 
	C637.195740,1790.821167 639.083252,1788.509277 641.912415,1787.171509 
	C643.243103,1787.134766 644.573853,1787.066284 645.904541,1787.066162 
	C743.613281,1787.061035 841.322083,1787.060181 939.030823,1787.070435 
	C940.692383,1787.070679 942.353943,1787.208496 944.078125,1788.016724 
	C944.725830,1791.616211 947.592773,1790.972290 949.974548,1790.976440 
	C972.051819,1791.014893 994.129089,1791.000000 1016.206421,1790.999756 
	C1028.988037,1790.999634 1041.769775,1791.030518 1054.551147,1790.971436 
	C1057.312256,1790.958740 1060.490601,1791.342285 1061.927246,1787.167114 
	C1063.257935,1787.131958 1064.588745,1787.066162 1065.919434,1787.066040 
	C1163.625244,1787.061279 1261.331055,1787.060669 1359.036865,1787.070312 
	C1360.698730,1787.070435 1362.360718,1787.199097 1364.205078,1787.938843 
	C1366.103516,1788.957397 1367.997437,1790.854980 1369.900879,1790.864502 
	C1405.364868,1791.040894 1440.830444,1791.050049 1476.293945,1790.832764 
	C1478.195557,1790.821167 1480.083008,1788.509277 1482.912231,1787.171509 
	C1484.242920,1787.134888 1485.573486,1787.066406 1486.904175,1787.066406 
	C1584.276489,1787.061401 1681.648804,1787.060669 1779.021118,1787.070312 
	C1780.682983,1787.070557 1782.344849,1787.199585 1784.099854,1787.955200 
	C1785.225098,1788.537354 1786.313232,1789.241943 1787.505493,1789.601562 
	C1787.753296,1789.676147 1788.904663,1788.171387 1788.752197,1787.907471 
	C1788.130859,1786.832764 1787.164917,1785.957153 1786.213013,1784.076782 
	C1786.168213,1781.913208 1786.084351,1779.749634 1786.084229,1777.586060 
	C1786.077759,1706.809448 1786.090454,1636.032715 1786.075806,1565.256104 
	C1786.066406,1519.793213 1786.018311,1474.330200 1786.017212,1427.956055 
	C1786.011475,1308.637329 1786.005737,1189.318726 1786.029297,1069.062988 
	C1786.031006,949.375488 1786.085571,829.687805 1785.868286,710.000732 
	C1785.858032,704.399597 1783.969482,698.602112 1781.998657,693.248413 
	C1778.516968,683.791382 1770.638672,677.929016 1763.623779,671.587463 
	C1765.758301,671.391602 1767.890503,671.066589 1770.027954,671.025757 
	C1775.189087,670.927307 1780.364258,671.142456 1785.507446,670.817139 
	C1786.820190,670.734131 1788.304565,669.305481 1789.181885,668.107971 
	C1789.620972,667.508545 1789.111084,665.263550 1788.613037,665.109070 
	C1787.215820,664.675842 1785.589111,664.814697 1784.075806,664.961731 
	C1781.474854,665.214417 1778.891113,665.954590 1776.300049,665.955566 
	C1639.562012,666.005920 1502.823853,666.000000 1366.042847,665.063538 
	C1366.028442,620.752747 1366.029053,576.441895 1365.993286,532.131104 
	C1365.974243,508.583221 1345.552612,488.012604 1322.062012,487.999359 
	C1249.098877,487.958160 1176.135864,487.965271 1103.172729,487.995605 
	C1083.144897,488.003937 1065.021973,502.751953 1059.934448,522.325623 
	C1034.555908,518.876221 1009.095459,516.580566 983.450623,516.746094 
	C971.968018,516.820190 960.484619,516.760498 948.949829,516.068298 
M1541.500000,215.000000 
	C1102.177246,215.000000 662.854370,214.998047 223.531601,215.037262 
	C220.256134,215.037552 215.398483,213.828445 215.392441,218.994766 
	C215.386398,224.166000 220.244461,222.962677 223.520630,222.962921 
	C742.841431,223.001617 1262.162231,223.001251 1781.483032,222.971649 
	C1784.790283,222.971451 1789.531860,224.084671 1789.347290,218.761856 
	C1789.179932,213.933243 1784.657471,215.028458 1781.494263,215.027084 
	C1701.829468,214.992661 1622.164795,215.000015 1541.500000,215.000000 
z"/>
<path fill="#818446" opacity="1.000000" stroke="none" 
	d="
M523.024048,1787.267822 
	C520.360229,1787.198975 517.696472,1787.070312 515.032654,1787.069946 
	C418.210114,1787.059570 321.387543,1787.029785 224.565170,1787.153931 
	C219.719131,1787.160156 217.933685,1786.118774 217.937378,1780.840820 
	C218.070694,1590.195557 218.049789,1399.550171 218.052628,1208.904785 
	C218.052643,1207.905151 218.086197,1206.905396 218.578934,1205.429688 
	C279.657440,1204.947876 340.261108,1204.957397 400.864655,1204.883057 
	C403.434906,1204.879883 406.004181,1204.099243 408.726471,1203.806641 
	C408.879028,1203.932373 409.168579,1204.208374 409.123138,1204.612671 
	C409.128265,1205.679810 409.107819,1206.357300 409.239471,1207.003540 
	C424.387085,1281.357056 452.938232,1350.150146 495.288574,1413.113403 
	C504.663788,1427.051636 515.076904,1440.291992 525.019409,1454.331543 
	C525.017822,1546.086548 525.008667,1637.363892 525.000183,1728.641113 
	C524.998596,1746.296875 525.059326,1763.953247 524.913086,1781.607788 
	C524.897400,1783.499634 523.682617,1785.381348 523.024048,1787.267822 
z"/>
<path fill="#844A4A" opacity="1.000000" stroke="none" 
	d="
M1762.931519,672.078064 
	C1770.638672,677.929016 1778.516968,683.791382 1781.998657,693.248413 
	C1783.969482,698.602112 1785.858032,704.399597 1785.868286,710.000732 
	C1786.085571,829.687805 1786.031006,949.375488 1785.546021,1069.531494 
	C1712.838135,1070.000000 1640.613525,1070.003418 1568.388916,1069.993652 
	C1562.565918,1069.992798 1556.742920,1069.901245 1550.830444,1069.437988 
	C1549.423828,1053.259766 1548.587891,1037.437622 1546.701050,1021.741882 
	C1540.604004,971.020264 1527.449829,922.051147 1507.813354,874.955872 
	C1499.569946,855.185120 1489.391724,836.221191 1480.054443,816.614624 
	C1479.965576,815.972107 1479.915283,815.605408 1479.887939,814.755554 
	C1479.939331,780.452332 1480.439941,746.623840 1479.837769,712.815002 
	C1479.402466,688.373108 1500.734253,666.734802 1525.818359,666.862671 
	C1594.790405,667.214417 1663.765869,667.067627 1732.739258,666.893188 
	C1743.204712,666.866699 1753.332153,667.626099 1762.931519,672.078064 
z"/>
<path fill="#818446" opacity="1.000000" stroke="none" 
	d="
M1785.987549,1428.867310 
	C1786.018311,1474.330200 1786.066406,1519.793213 1786.075806,1565.256104 
	C1786.090454,1636.032715 1786.077759,1706.809448 1786.084229,1777.586060 
	C1786.084351,1779.749634 1786.168213,1781.913208 1786.120117,1784.847168 
	C1785.353638,1786.167847 1784.680176,1786.718140 1784.006714,1787.268555 
	C1782.344849,1787.199585 1780.682983,1787.070557 1779.021118,1787.070312 
	C1681.648804,1787.060669 1584.276489,1787.061401 1486.904175,1787.066406 
	C1485.573486,1787.066406 1484.242920,1787.134888 1482.085938,1787.018555 
	C1480.837524,1784.673096 1480.048584,1782.480957 1480.046509,1780.288086 
	C1479.978516,1707.649902 1479.972168,1635.011719 1479.987061,1562.373535 
	C1479.996094,1517.891724 1480.054565,1473.409912 1480.553711,1428.926025 
	C1502.681274,1428.927856 1524.345947,1428.939575 1546.010620,1428.934326 
	C1626.002930,1428.915039 1705.995239,1428.890137 1785.987549,1428.867310 
z"/>
<path fill="#478467" opacity="1.000000" stroke="none" 
	d="
M1786.002441,1428.411621 
	C1705.995239,1428.890137 1626.002930,1428.915039 1546.010620,1428.934326 
	C1524.345947,1428.939575 1502.681274,1428.927856 1480.528687,1428.465820 
	C1479.956421,1408.863159 1479.872192,1389.718628 1479.817383,1370.310303 
	C1479.917969,1369.701294 1479.989014,1369.356079 1480.301758,1368.782227 
	C1497.478394,1337.867065 1511.298584,1305.837524 1522.247803,1272.540771 
	C1535.401245,1232.540771 1544.267944,1191.643066 1548.093994,1149.705322 
	C1549.179321,1137.810303 1549.731567,1125.848755 1550.039185,1113.905151 
	C1550.415161,1099.304321 1550.276245,1084.690186 1550.502686,1070.030884 
	C1550.645264,1069.979980 1550.919922,1069.851929 1550.919922,1069.851929 
	C1556.742920,1069.901245 1562.565918,1069.992798 1568.388916,1069.993652 
	C1640.613525,1070.003418 1712.838135,1070.000000 1785.531372,1070.000000 
	C1786.005737,1189.318726 1786.011475,1308.637329 1786.002441,1428.411621 
z"/>
<path fill="#844A4A" opacity="1.000000" stroke="none" 
	d="
M218.047058,980.885925 
	C218.041290,876.435425 218.014359,771.984863 218.045456,667.534363 
	C218.052750,642.999817 239.167038,622.015076 263.736511,622.008118 
	C336.035614,621.987549 408.334778,621.965271 480.633820,622.024048 
	C503.305847,622.042542 524.234741,642.485046 525.038208,666.033569 
	C525.064514,688.416077 525.094360,709.895691 525.103333,731.604126 
	C524.964050,732.116699 524.876343,732.409729 524.536865,732.900269 
	C523.280396,734.228027 522.259094,735.330566 521.338928,736.511902 
	C481.815857,787.252197 450.858917,842.684326 429.849487,903.565735 
	C421.151794,928.770020 413.820038,954.339966 409.021606,980.730835 
	C408.921478,980.842346 408.717133,981.061584 408.205505,981.010864 
	C344.478302,980.935486 281.262665,980.910706 218.047058,980.885925 
z"/>
<path fill="#844A4A" opacity="1.000000" stroke="none" 
	d="
M945.187317,447.000732 
	C945.165955,468.689453 945.144653,490.378174 945.111145,512.919006 
	C945.102966,514.801758 945.106995,515.832458 945.130554,516.950378 
	C945.150085,517.037659 945.066345,517.195801 944.607605,517.130981 
	C922.669006,519.391724 901.046936,520.823181 879.736267,524.212463 
	C818.459656,533.957825 760.265015,553.502869 705.723877,583.059692 
	C682.956970,595.397461 661.408386,609.983276 639.305786,623.546936 
	C639.202515,620.891235 639.010498,618.235535 639.009094,615.579773 
	C638.978577,559.365845 638.969482,503.151917 638.960449,446.069824 
	C638.944824,444.134460 638.925049,443.067230 638.905273,442.000000 
	C638.935913,397.504120 638.963989,353.008209 638.998230,308.512329 
	C639.017151,283.929016 658.820984,264.007996 683.426819,263.994659 
	C756.087646,263.955353 828.749451,264.195404 901.408630,263.849060 
	C922.428711,263.748901 945.463562,283.971069 945.191345,307.578430 
	C944.678345,352.068085 945.095398,396.568420 945.113770,441.947388 
	C945.130249,444.220520 945.158752,445.610626 945.187317,447.000732 
z"/>
<path fill="#818446" opacity="1.000000" stroke="none" 
	d="
M1364.022583,1787.267700 
	C1362.360718,1787.199097 1360.698730,1787.070435 1359.036865,1787.070312 
	C1261.331055,1787.060669 1163.625244,1787.061279 1065.919434,1787.066040 
	C1064.588745,1787.066162 1063.257935,1787.131958 1061.108398,1787.007080 
	C1059.878906,1784.817139 1059.114868,1782.788330 1059.109375,1780.757446 
	C1059.004028,1741.545288 1058.987427,1702.333008 1059.363525,1663.023682 
	C1066.680786,1661.828491 1073.625366,1660.928467 1080.487427,1659.601685 
	C1157.139893,1644.779419 1228.186768,1616.184692 1293.284302,1572.948730 
	C1319.020020,1555.855835 1342.916748,1536.446289 1365.957764,1516.380127 
	C1365.986694,1566.974976 1365.995361,1617.095581 1365.999390,1667.216309 
	C1366.002563,1705.181519 1366.030884,1743.146729 1365.915771,1781.111572 
	C1365.909546,1783.165527 1364.681641,1785.215698 1364.022583,1787.267700 
z"/>
<path fill="#818446" opacity="1.000000" stroke="none" 
	d="
M944.015503,1787.282227 
	C942.353943,1787.208496 940.692383,1787.070679 939.030823,1787.070435 
	C841.322083,1787.060181 743.613281,1787.061035 645.904541,1787.066162 
	C644.573853,1787.066284 643.243103,1787.134766 641.085938,1787.018555 
	C639.836548,1784.672974 639.048157,1782.481079 639.044678,1780.287842 
	C638.973267,1734.633667 638.976746,1688.979248 638.996216,1643.324951 
	C639.007812,1616.166748 639.072266,1589.008667 639.437561,1561.960571 
	C672.221130,1584.936279 706.459717,1604.686890 742.818848,1620.680176 
	C792.444275,1642.509033 844.138733,1657.090698 897.885376,1664.180176 
	C913.533752,1666.244141 929.297852,1667.431274 945.029968,1669.487427 
	C945.058350,1707.148682 945.081360,1744.342773 945.027954,1781.536865 
	C945.025146,1783.452515 944.368042,1785.367188 944.015503,1787.282227 
z"/>
<path fill="#478467" opacity="1.000000" stroke="none" 
	d="
M218.042236,981.365723 
	C281.262665,980.910706 344.478302,980.935486 408.144836,981.448242 
	C394.516388,1055.849731 394.278870,1129.764648 408.573914,1203.680908 
	C406.004181,1204.099243 403.434906,1204.879883 400.864655,1204.883057 
	C340.261108,1204.957397 279.657440,1204.947876 218.601349,1204.959473 
	C218.109192,1174.351196 218.047577,1143.737427 218.034988,1113.123535 
	C218.016983,1069.364258 218.034851,1025.604858 218.042236,981.365723 
z"/>
<path fill="#545454" opacity="1.000000" stroke="none" 
	d="
M1364.113770,1787.603271 
	C1364.681641,1785.215698 1365.909546,1783.165527 1365.915771,1781.111572 
	C1366.030884,1743.146729 1366.002563,1705.181519 1365.999390,1667.216309 
	C1365.995361,1617.095581 1365.986694,1566.974976 1366.118652,1516.089355 
	C1374.618896,1507.062256 1383.516724,1499.268677 1391.230957,1490.440796 
	C1407.531982,1471.786743 1424.204102,1453.321777 1438.873657,1433.415649 
	C1453.677246,1413.327271 1466.242188,1391.589233 1479.787964,1370.573975 
	C1479.872192,1389.718628 1479.956421,1408.863159 1480.065796,1428.468018 
	C1480.054565,1473.409912 1479.996094,1517.891724 1479.987061,1562.373535 
	C1479.972168,1635.011719 1479.978516,1707.649902 1480.046509,1780.288086 
	C1480.048584,1782.480957 1480.837524,1784.673096 1481.618408,1787.066895 
	C1480.083008,1788.509277 1478.195557,1790.821167 1476.293945,1790.832764 
	C1440.830444,1791.050049 1405.364868,1791.040894 1369.900879,1790.864502 
	C1367.997437,1790.854980 1366.103516,1788.957397 1364.113770,1787.603271 
z"/>
<path fill="#545454" opacity="1.000000" stroke="none" 
	d="
M639.112976,1561.850464 
	C639.072266,1589.008667 639.007812,1616.166748 638.996216,1643.324951 
	C638.976746,1688.979248 638.973267,1734.633667 639.044678,1780.287842 
	C639.048157,1782.481079 639.836548,1784.672974 640.618347,1787.066895 
	C639.083252,1788.509277 637.195740,1790.821167 635.294189,1790.832764 
	C599.829468,1791.049805 564.362793,1791.040649 528.897705,1790.864136 
	C526.995178,1790.854736 525.102051,1788.954712 523.114380,1787.601318 
	C523.682617,1785.381348 524.897400,1783.499634 524.913086,1781.607788 
	C525.059326,1763.953247 524.998596,1746.296875 525.000183,1728.641113 
	C525.008667,1637.363892 525.017822,1546.086548 525.325073,1454.486572 
	C548.286499,1482.248413 573.126465,1508.233521 600.863953,1531.347900 
	C613.388794,1541.785156 626.349854,1551.699097 639.112976,1561.850464 
z"/>
<path fill="#844A4A" opacity="1.000000" stroke="none" 
	d="
M1060.768677,522.332764 
	C1065.021973,502.751953 1083.144897,488.003937 1103.172729,487.995605 
	C1176.135864,487.965271 1249.098877,487.958160 1322.062012,487.999359 
	C1345.552612,488.012604 1365.974243,508.583221 1365.993286,532.131104 
	C1366.029053,576.441895 1366.028442,620.752747 1366.029053,665.958252 
	C1365.927612,667.703613 1365.839844,668.554321 1365.454956,669.236084 
	C1363.527222,667.643494 1361.878418,666.239868 1360.268677,664.792908 
	C1285.900391,597.948669 1200.087524,553.007324 1102.625977,530.549683 
	C1088.875366,527.381287 1074.830444,525.489929 1060.856445,522.844910 
	C1060.791138,522.682373 1060.768677,522.332764 1060.768677,522.332764 
z"/>
<path fill="#545454" opacity="1.000000" stroke="none" 
	d="
M944.046814,1787.649414 
	C944.368042,1785.367188 945.025146,1783.452515 945.027954,1781.536865 
	C945.081360,1744.342773 945.058350,1707.148682 945.492004,1669.405273 
	C949.925842,1668.896240 953.919861,1669.020386 957.911316,1668.962891 
	C978.492065,1668.666992 999.097168,1668.831543 1019.643372,1667.815308 
	C1032.791626,1667.164917 1045.852417,1664.746460 1058.952515,1663.120728 
	C1058.987427,1702.333008 1059.004028,1741.545288 1059.109375,1780.757446 
	C1059.114868,1782.788330 1059.878906,1784.817139 1060.641846,1787.054199 
	C1060.490601,1791.342285 1057.312256,1790.958740 1054.551147,1790.971436 
	C1041.769775,1791.030518 1028.988037,1790.999634 1016.206421,1790.999756 
	C994.129089,1791.000000 972.051819,1791.014893 949.974548,1790.976440 
	C947.592773,1790.972290 944.725830,1791.616211 944.046814,1787.649414 
z"/>
<path fill="#545454" opacity="1.000000" stroke="none" 
	d="
M1542.000000,215.000000 
	C1622.164795,215.000015 1701.829468,214.992661 1781.494263,215.027084 
	C1784.657471,215.028458 1789.179932,213.933243 1789.347290,218.761856 
	C1789.531860,224.084671 1784.790283,222.971451 1781.483032,222.971649 
	C1262.162231,223.001251 742.841431,223.001617 223.520630,222.962921 
	C220.244461,222.962677 215.386398,224.166000 215.392441,218.994766 
	C215.398483,213.828445 220.256134,215.037552 223.531601,215.037262 
	C662.854370,214.998047 1102.177246,215.000000 1542.000000,215.000000 
z"/>
<path fill="#545454" opacity="1.000000" stroke="none" 
	d="
M1365.752075,669.404968 
	C1365.839844,668.554321 1365.927612,667.703613 1366.050537,666.426514 
	C1502.823853,666.000000 1639.562012,666.005920 1776.300049,665.955566 
	C1778.891113,665.954590 1781.474854,665.214417 1784.075806,664.961731 
	C1785.589111,664.814697 1787.215820,664.675842 1788.613037,665.109070 
	C1789.111084,665.263550 1789.620972,667.508545 1789.181885,668.107971 
	C1788.304565,669.305481 1786.820190,670.734131 1785.507446,670.817139 
	C1780.364258,671.142456 1775.189087,670.927307 1770.027954,671.025757 
	C1767.890503,671.066589 1765.758301,671.391602 1763.277588,671.832764 
	C1753.332153,667.626099 1743.204712,666.866699 1732.739258,666.893188 
	C1663.765869,667.067627 1594.790405,667.214417 1525.818359,666.862671 
	C1500.734253,666.734802 1479.402466,688.373108 1479.837769,712.815002 
	C1480.439941,746.623840 1479.939331,780.452332 1479.617188,814.537964 
	C1461.422241,782.830261 1441.456787,752.187744 1417.340576,724.578003 
	C1400.974731,705.841675 1383.180054,688.353271 1365.965698,670.078491 
	C1365.906860,669.850220 1365.752075,669.404968 1365.752075,669.404968 
z"/>
<path fill="#F5C326" opacity="1.000000" stroke="none" 
	d="
M639.204590,623.733276 
	C661.408386,609.983276 682.956970,595.397461 705.723877,583.059692 
	C760.265015,553.502869 818.459656,533.957825 879.736267,524.212463 
	C901.046936,520.823181 922.669006,519.391724 944.607178,517.585693 
	C945.064697,523.660767 945.063904,529.216248 944.639893,534.877075 
	C937.787109,535.653625 931.333679,536.150757 924.932434,537.028015 
	C903.694641,539.938538 882.294312,542.058655 861.286072,546.167786 
	C812.693542,555.672302 766.507751,572.404785 722.417175,594.964478 
	C693.165527,609.931519 665.531372,627.465088 638.983765,646.324341 
	C638.972534,638.686646 638.968872,631.503601 638.965271,624.320618 
	C638.965271,624.320618 639.103333,623.919617 639.204590,623.733276 
z"/>
<path fill="#545454" opacity="1.000000" stroke="none" 
	d="
M945.637329,447.000427 
	C945.158752,445.610626 945.130249,444.220520 945.146606,442.414795 
	C1222.113281,441.999451 1499.035156,442.003998 1775.957031,441.941956 
	C1778.852051,441.941284 1781.740112,440.779480 1784.644409,440.711792 
	C1786.231079,440.674835 1787.844727,441.798065 1789.446289,442.398071 
	C1788.411133,443.875977 1787.673584,446.071106 1786.267212,446.654785 
	C1784.402344,447.428711 1782.015137,446.993042 1779.852295,446.993103 
	C1501.930664,447.000458 1224.008911,447.000122 945.637329,447.000427 
z"/>
<path fill="#F1FC23" opacity="1.000000" stroke="none" 
	d="
M638.667847,624.436890 
	C638.968872,631.503601 638.972534,638.686646 638.922241,646.474487 
	C638.868225,647.079285 638.869141,647.402405 638.549683,647.556396 
	C608.001160,670.553589 580.315613,696.144775 555.669800,724.928162 
	C545.193726,737.162842 535.323792,749.916504 525.134644,761.940186 
	C525.000244,751.867920 524.909729,742.289856 524.819214,732.711853 
	C524.876343,732.409729 524.964050,732.116699 525.397766,731.420532 
	C528.030884,728.192505 530.185547,725.221741 532.692505,722.585938 
	C550.618835,703.738159 568.617004,684.958740 586.592285,666.157532 
	C603.851685,652.289368 621.111023,638.421265 638.667847,624.436890 
z"/>
<path fill="#545454" opacity="1.000000" stroke="none" 
	d="
M638.445801,442.000000 
	C638.925049,443.067230 638.944824,444.134460 638.941345,445.601654 
	C634.618774,446.334412 630.319580,446.956360 626.020203,446.958008 
	C492.222717,447.009277 358.425232,447.000854 224.627731,446.992035 
	C222.632477,446.991913 220.482407,447.299164 218.698288,446.652588 
	C217.574936,446.245453 216.999588,444.326233 216.178406,443.085327 
	C217.337646,442.526947 218.488632,441.518463 219.657745,441.497009 
	C222.799667,441.439270 225.949341,441.974701 229.095978,441.975342 
	C365.392792,442.003967 501.689636,442.000000 638.445801,442.000000 
z"/>
<path fill="#F2FD23" opacity="1.000000" stroke="none" 
	d="
M945.063110,534.771790 
	C945.063904,529.216248 945.064697,523.660767 945.065918,517.650513 
	C945.066345,517.195801 945.150085,517.037659 945.514282,517.001587 
	C946.919495,516.897522 947.960510,516.829468 949.001587,516.761475 
	C960.484619,516.760498 971.968018,516.820190 983.450623,516.746094 
	C1009.095459,516.580566 1034.555908,518.876221 1060.351562,522.329224 
	C1060.768677,522.332764 1060.791138,522.682373 1060.639648,523.158997 
	C1059.658447,529.319824 1058.828613,535.004028 1057.595093,540.681580 
	C1045.076538,539.096375 1032.998657,537.075500 1020.837097,536.056885 
	C1007.208191,534.915405 993.507874,534.335815 979.830139,534.157593 
	C968.264221,534.006897 956.686218,534.778137 945.161560,535.040710 
	C945.209534,534.940063 945.063110,534.771790 945.063110,534.771790 
z"/>
<path fill="#545454" opacity="1.000000" stroke="none" 
	d="
M586.082275,666.124695 
	C568.617004,684.958740 550.618835,703.738159 532.692505,722.585938 
	C530.185547,725.221741 528.030884,728.192505 525.418640,731.191772 
	C525.094360,709.895691 525.064514,688.416077 525.059631,666.468201 
	C545.247131,666.030640 565.409729,666.061218 586.082275,666.124695 
z"/>
<path fill="#545454" opacity="1.000000" stroke="none" 
	d="
M1784.053223,1787.611816 
	C1784.680176,1786.718140 1785.353638,1786.167847 1786.176514,1785.312866 
	C1787.164917,1785.957153 1788.130859,1786.832764 1788.752197,1787.907471 
	C1788.904663,1788.171387 1787.753296,1789.676147 1787.505493,1789.601562 
	C1786.313232,1789.241943 1785.225098,1788.537354 1784.053223,1787.611816 
z"/>
<path fill="#545454" opacity="1.000000" stroke="none" 
	d="
M948.975708,516.414856 
	C947.960510,516.829468 946.919495,516.897522 945.494751,516.914307 
	C945.106995,515.832458 945.102966,514.801758 945.143005,513.386719 
	C946.441345,514.024231 947.695618,515.046265 948.975708,516.414856 
z"/>
<path fill="#F2FD23" opacity="1.000000" stroke="none" 
	d="
M1059.363525,1663.023682 
	C1045.852417,1664.746460 1032.791626,1667.164917 1019.643372,1667.815308 
	C999.097168,1668.831543 978.492065,1668.666992 957.911316,1668.962891 
	C953.919861,1669.020386 949.925842,1668.896240 945.470947,1668.938232 
	C929.297852,1667.431274 913.533752,1666.244141 897.885376,1664.180176 
	C844.138733,1657.090698 792.444275,1642.509033 742.818848,1620.680176 
	C706.459717,1604.686890 672.221130,1584.936279 639.437561,1561.960571 
	C626.349854,1551.699097 613.388794,1541.785156 600.863953,1531.347900 
	C573.126465,1508.233521 548.286499,1482.248413 525.317749,1454.008789 
	C515.076904,1440.291992 504.663788,1427.051636 495.288574,1413.113403 
	C452.938232,1350.150146 424.387085,1281.357056 409.239471,1207.003540 
	C409.107819,1206.357300 409.128265,1205.679810 409.579803,1204.573853 
	C416.387482,1204.103882 422.693085,1204.077026 429.144043,1204.205566 
	C429.425690,1204.620850 429.621460,1204.823242 429.876465,1205.378052 
	C441.576202,1262.427612 461.574982,1316.002319 490.443512,1366.082886 
	C500.966125,1384.337402 513.316833,1401.537964 524.930115,1419.543335 
	C539.667358,1437.558594 553.750427,1455.750854 569.085022,1472.818604 
	C589.824585,1495.902100 613.029846,1516.453369 638.038452,1535.393799 
	C639.551331,1536.658081 640.923279,1537.598389 642.259155,1538.587402 
	C704.448364,1584.627319 773.118042,1616.815308 848.476379,1634.421265 
	C880.161987,1641.823975 912.229858,1647.093140 945.151245,1648.519653 
	C970.975525,1648.516846 996.546326,1650.476318 1022.011780,1647.074585 
	C1034.462891,1645.411133 1046.959473,1644.088379 1059.851807,1642.638306 
	C1061.247925,1642.472290 1062.222656,1642.245361 1063.208496,1642.091309 
	C1118.338623,1633.476074 1170.811035,1616.558350 1220.902710,1592.014160 
	C1275.328247,1565.346313 1324.090332,1530.783813 1367.357788,1487.890869 
	C1414.244873,1441.339478 1451.614380,1388.422485 1479.898193,1329.543945 
	C1479.948730,1343.008789 1480.004395,1356.009766 1480.060059,1369.010742 
	C1479.989014,1369.356079 1479.917969,1369.701294 1479.817383,1370.310303 
	C1466.242188,1391.589233 1453.677246,1413.327271 1438.873657,1433.415649 
	C1424.204102,1453.321777 1407.531982,1471.786743 1391.230957,1490.440796 
	C1383.516724,1499.268677 1374.618896,1507.062256 1366.096436,1515.615234 
	C1342.916748,1536.446289 1319.020020,1555.855835 1293.284302,1572.948730 
	C1228.186768,1616.184692 1157.139893,1644.779419 1080.487427,1659.601685 
	C1073.625366,1660.928467 1066.680786,1661.828491 1059.363525,1663.023682 
z"/>
<path fill="#B9FE43" opacity="1.000000" stroke="none" 
	d="
M428.998657,1204.050293 
	C422.693085,1204.077026 416.387482,1204.103882 409.625244,1204.169556 
	C409.168579,1204.208374 408.879028,1203.932373 408.726471,1203.806641 
	C394.278870,1129.764648 394.516388,1055.849731 408.656464,981.498901 
	C408.717133,981.061584 408.921478,980.842346 409.475403,980.816284 
	C416.291534,980.854736 422.553741,980.919312 428.822937,981.386353 
	C428.038696,986.035461 427.211395,990.275696 426.462128,994.529663 
	C421.950073,1020.146240 418.336151,1045.922363 418.178192,1071.936890 
	C418.038452,1094.959717 419.023468,1118.011475 420.240753,1141.011719 
	C420.878204,1153.056519 422.952271,1165.036499 424.620575,1177.011841 
	C425.880066,1186.052490 427.525177,1195.039307 428.998657,1204.050293 
z"/>
<path fill="#F5C326" opacity="1.000000" stroke="none" 
	d="
M1480.093018,816.890442 
	C1489.391724,836.221191 1499.569946,855.185120 1507.813354,874.955872 
	C1527.449829,922.051147 1540.604004,971.020264 1546.701050,1021.741882 
	C1548.587891,1037.437622 1549.423828,1053.259766 1550.830444,1069.437988 
	C1550.919922,1069.851929 1550.645264,1069.979980 1550.083008,1069.998779 
	C1543.871948,1069.998657 1538.222900,1069.979614 1532.465210,1069.509521 
	C1531.526489,1056.822266 1531.096680,1044.542847 1529.791992,1032.357178 
	C1525.781128,994.895325 1518.551147,958.011780 1506.322021,922.366943 
	C1498.578857,899.797485 1488.966064,877.869385 1480.157227,855.360168 
	C1480.029297,854.485962 1479.935913,853.905212 1479.863892,852.835815 
	C1479.954468,840.528198 1480.023804,828.709290 1480.093018,816.890442 
z"/>
<path fill="#F1FC23" opacity="1.000000" stroke="none" 
	d="
M1480.054443,816.614624 
	C1480.023804,828.709290 1479.954468,840.528198 1479.590332,852.618896 
	C1459.930176,812.391724 1436.452393,774.439026 1407.737915,739.923035 
	C1394.787964,724.356689 1380.562256,709.851746 1366.857910,694.624390 
	C1366.486206,694.005615 1366.171875,693.627563 1365.890381,692.766357 
	C1365.956909,684.957642 1365.990723,677.632141 1366.024658,670.306702 
	C1383.180054,688.353271 1400.974731,705.841675 1417.340576,724.578003 
	C1441.456787,752.187744 1461.422241,782.830261 1479.594238,815.021118 
	C1479.915283,815.605408 1479.965576,815.972107 1480.054443,816.614624 
z"/>
<path fill="#B8FC43" opacity="1.000000" stroke="none" 
	d="
M1532.573975,1069.960449 
	C1538.222900,1069.979614 1543.871948,1069.998657 1549.940430,1070.049805 
	C1550.276245,1084.690186 1550.415161,1099.304321 1550.039185,1113.905151 
	C1549.731567,1125.848755 1549.179321,1137.810303 1548.093994,1149.705322 
	C1544.267944,1191.643066 1535.401245,1232.540771 1522.247803,1272.540771 
	C1511.298584,1305.837524 1497.478394,1337.867065 1480.301636,1368.782227 
	C1480.004395,1356.009766 1479.948730,1343.008789 1479.963867,1329.222412 
	C1480.061646,1328.002441 1480.088623,1327.567871 1480.416016,1326.941162 
	C1483.907471,1319.511597 1487.558594,1312.437622 1490.202393,1305.005249 
	C1497.780029,1283.703613 1505.322388,1262.375610 1512.178223,1240.835083 
	C1519.658325,1217.332764 1524.044556,1193.081665 1527.221924,1168.659912 
	C1528.980225,1155.145996 1530.341675,1141.534546 1530.932983,1127.925903 
	C1531.768799,1108.686890 1531.726929,1089.409790 1532.188721,1070.102295 
	C1532.317383,1070.055664 1532.573975,1069.960449 1532.573975,1069.960449 
z"/>
<path fill="#F5C326" opacity="1.000000" stroke="none" 
	d="
M428.815948,980.983887 
	C422.553741,980.919312 416.291534,980.854736 409.575531,980.704712 
	C413.820038,954.339966 421.151794,928.770020 429.849487,903.565735 
	C450.858917,842.684326 481.815857,787.252197 521.338928,736.511902 
	C522.259094,735.330566 523.280396,734.228027 524.536865,732.900269 
	C524.909729,742.289856 525.000244,751.867920 525.118896,762.182861 
	C524.999390,763.213379 524.911011,763.523804 524.596924,764.032410 
	C476.954559,829.469666 445.356415,901.652161 429.100647,980.710938 
	C429.005829,980.802002 428.815948,980.983887 428.815948,980.983887 
z"/>
<path fill="#F5C326" opacity="1.000000" stroke="none" 
	d="
M1365.965820,670.078491 
	C1365.990723,677.632141 1365.956909,684.957642 1365.581299,692.629517 
	C1351.139893,680.549072 1337.549683,667.480957 1322.852905,655.805969 
	C1258.119507,604.381775 1185.595581,568.614197 1105.062622,549.536316 
	C1089.901489,545.944824 1074.411377,543.741760 1058.811279,540.811157 
	C1058.365845,540.712219 1058.182251,540.700256 1057.998779,540.688232 
	C1058.828613,535.004028 1059.658447,529.319824 1060.705078,523.321533 
	C1074.830444,525.489929 1088.875366,527.381287 1102.625977,530.549683 
	C1200.087524,553.007324 1285.900391,597.948669 1360.268677,664.792908 
	C1361.878418,666.239868 1363.527222,667.643494 1365.454956,669.236084 
	C1365.752075,669.404968 1365.906860,669.850220 1365.965820,670.078491 
z"/>
<path fill="#470D0D" opacity="1.000000" stroke="none" 
	d="
M638.869141,647.402405 
	C638.869141,647.402405 638.868225,647.079285 638.929810,646.929199 
	C665.531372,627.465088 693.165527,609.931519 722.417175,594.964478 
	C766.507751,572.404785 812.693542,555.672302 861.286072,546.167786 
	C882.294312,542.058655 903.694641,539.938538 924.932434,537.028015 
	C931.333679,536.150757 937.787109,535.653625 944.639893,534.877075 
	C945.063110,534.771790 945.209534,534.940063 945.149780,535.500977 
	C945.088562,578.493103 945.067261,620.924316 945.092346,663.355591 
	C945.110352,693.804810 945.190430,724.254028 945.002930,755.091736 
	C941.433594,755.735718 938.104126,755.991150 934.825073,756.049561 
	C934.737793,755.988098 934.600159,756.123840 934.380249,756.325684 
	C934.297913,756.391785 934.137512,756.254456 933.663452,756.191895 
	C930.693115,756.097290 928.196838,756.037659 925.700500,756.037231 
	C830.145752,756.019287 734.590942,756.006775 639.020996,755.525513 
	C638.960266,719.172424 638.914673,683.287415 638.869141,647.402405 
z"/>
<path fill="#000000" opacity="1.000000" stroke="none" 
	d="
M638.549683,647.556396 
	C638.914673,683.287415 638.960266,719.172424 639.018188,755.789673 
	C639.036377,756.697937 639.042236,756.874023 639.024963,757.513916 
	C638.993408,860.993347 638.984680,964.008972 638.981506,1067.024658 
	C638.981506,1068.021973 639.055969,1069.019287 639.056580,1070.482910 
	C638.999573,1073.448608 638.965820,1075.947998 638.965820,1078.447510 
	C638.963318,1228.263916 638.968628,1378.080200 638.918518,1527.896606 
	C638.917725,1530.295410 638.241577,1532.693970 637.880615,1535.092651 
	C613.029846,1516.453369 589.824585,1495.902100 569.085022,1472.818604 
	C553.750427,1455.750854 539.667358,1437.558594 524.986755,1419.063477 
	C524.962158,1348.145630 524.978271,1278.031372 524.984985,1207.917236 
	C524.985046,1206.921021 524.868225,1205.924805 524.851440,1204.466431 
	C524.931152,1201.841797 524.994812,1199.679321 524.994995,1197.516846 
	C525.000122,1127.790527 525.000916,1058.064087 524.992310,988.337769 
	C524.992004,985.843445 524.890076,983.349060 524.879272,980.401978 
	C524.951172,950.670044 525.009705,921.390869 525.000244,892.111755 
	C524.986389,849.358215 524.923706,806.604614 524.881775,763.851074 
	C524.911011,763.523804 524.999390,763.213379 525.162659,762.677063 
	C535.323792,749.916504 545.193726,737.162842 555.669800,724.928162 
	C580.315613,696.144775 608.001160,670.553589 638.549683,647.556396 
z"/>
<path fill="#000000" opacity="1.000000" stroke="none" 
	d="
M945.242798,754.703247 
	C945.190430,724.254028 945.110352,693.804810 945.092346,663.355591 
	C945.067261,620.924316 945.088562,578.493103 945.101807,535.601562 
	C956.686218,534.778137 968.264221,534.006897 979.830139,534.157593 
	C993.507874,534.335815 1007.208191,534.915405 1020.837097,536.056885 
	C1032.998657,537.075500 1045.076538,539.096375 1057.594971,540.681580 
	C1058.182251,540.700256 1058.365845,540.712219 1058.811157,541.286316 
	C1059.054443,583.234558 1059.035767,624.620728 1058.546753,666.006958 
	C1021.328552,666.007080 984.580688,666.007080 947.832825,666.007080 
	C947.833679,666.337402 947.834534,666.667786 947.835388,666.998108 
	C984.893799,666.998108 1021.952209,666.998108 1059.026855,667.466675 
	C1059.023560,719.957703 1059.004150,771.980225 1058.593140,824.009277 
	C1052.726685,822.672058 1047.310059,820.709045 1041.757935,820.185791 
	C1037.523438,819.786682 1036.463379,818.428894 1036.497681,814.472107 
	C1036.653442,796.512207 1036.565430,778.550293 1036.565308,760.589050 
	C1036.565308,758.801697 1036.565308,757.014404 1036.565308,754.703247 
	C1005.732910,754.703247 975.487854,754.703247 945.242798,754.703247 
z"/>
<path fill="#444709" opacity="1.000000" stroke="none" 
	d="
M638.038452,1535.393799 
	C638.241577,1532.693970 638.917725,1530.295410 638.918518,1527.896606 
	C638.968628,1378.080200 638.963318,1228.263916 638.965820,1078.447510 
	C638.965820,1075.947998 638.999573,1073.448608 639.516174,1070.478027 
	C703.947937,1069.980835 767.881042,1069.954590 831.981812,1069.994873 
	C832.149475,1070.061279 832.489380,1070.182129 832.635620,1070.507080 
	C842.857239,1085.547974 854.890198,1098.419556 870.086670,1107.839111 
	C893.074097,1122.087891 919.091370,1127.952881 945.139404,1133.879150 
	C945.217163,1133.975708 945.275940,1134.216431 945.237549,1134.670654 
	C945.227539,1179.716797 945.255859,1224.308838 945.260010,1269.015625 
	C945.235840,1269.130249 945.070496,1269.296265 944.676270,1269.165649 
	C902.569519,1262.697632 865.732300,1245.757446 833.665405,1217.704590 
	C833.235962,1218.352539 832.943787,1218.736938 832.710205,1219.154053 
	C817.742432,1245.880615 802.734985,1272.585327 787.949829,1299.412720 
	C787.225098,1300.727783 787.761047,1303.877197 788.874268,1304.880737 
	C796.146729,1311.436768 803.222229,1318.416382 811.329346,1323.801392 
	C833.142517,1338.290405 857.331848,1347.874512 882.419678,1354.891113 
	C899.516602,1359.672974 917.005371,1363.054443 935.056702,1367.232788 
	C935.056702,1386.924194 935.056702,1407.322632 935.056702,1427.894897 
	C938.793457,1427.894897 941.919128,1427.894897 945.125854,1428.008057 
	C945.206970,1428.121094 945.291382,1428.386353 945.271484,1428.830078 
	C945.213501,1431.605469 945.142212,1433.937134 945.142029,1436.268921 
	C945.136047,1504.421143 945.140259,1572.573242 945.125244,1640.725464 
	C945.124695,1643.218994 944.947632,1645.712402 944.852844,1648.205933 
	C912.229858,1647.093140 880.161987,1641.823975 848.476379,1634.421265 
	C773.118042,1616.815308 704.448364,1584.627319 642.259155,1538.587402 
	C640.923279,1537.598389 639.551331,1536.658081 638.038452,1535.393799 
z"/>
<path fill="#000000" opacity="1.000000" stroke="none" 
	d="
M1480.115601,1327.133179 
	C1480.088623,1327.567871 1480.061646,1328.002441 1479.968994,1328.758667 
	C1451.614380,1388.422485 1414.244873,1441.339478 1367.057861,1487.593506 
	C1366.245850,1482.949707 1366.023438,1478.439453 1365.856445,1473.471802 
	C1365.941284,1471.682129 1365.996094,1470.349976 1365.996216,1469.017822 
	C1366.007080,1350.724121 1366.026001,1232.430542 1366.011841,1114.136841 
	C1366.008301,1084.482056 1365.897827,1054.827271 1365.879395,1024.694824 
	C1365.948120,1021.720947 1365.996704,1019.224792 1365.996826,1016.728699 
	C1366.000610,911.872803 1365.993896,807.016907 1366.038330,702.161011 
	C1366.039429,699.728943 1366.610229,697.297119 1366.915405,694.865173 
	C1380.562256,709.851746 1394.787964,724.356689 1407.737915,739.923035 
	C1436.452393,774.439026 1459.930176,812.391724 1479.568970,853.107666 
	C1479.935913,853.905212 1480.029297,854.485962 1480.093994,855.849365 
	C1480.038696,867.459045 1479.985352,878.286011 1479.990112,889.112915 
	C1480.016479,949.411987 1480.057007,1009.711060 1480.059326,1070.477173 
	C1480.012573,1147.186157 1479.994629,1223.428101 1479.991699,1299.670044 
	C1479.991333,1308.824463 1480.072388,1317.978760 1480.115601,1327.133179 
z"/>
<path fill="#444709" opacity="1.000000" stroke="none" 
	d="
M1365.801025,1473.929321 
	C1366.023438,1478.439453 1366.245850,1482.949707 1366.768188,1487.757202 
	C1324.090332,1530.783813 1275.328247,1565.346313 1220.902710,1592.014160 
	C1170.811035,1616.558350 1118.338623,1633.476074 1063.208496,1642.091309 
	C1062.222656,1642.245361 1061.247925,1642.472290 1059.766846,1642.131836 
	C1059.213257,1640.269653 1059.114868,1638.940674 1059.114746,1637.611816 
	C1059.106689,1584.555908 1059.105591,1531.499878 1059.118408,1478.443970 
	C1059.118774,1476.951660 1059.282715,1475.459351 1059.802246,1473.965576 
	C1162.089722,1473.952515 1263.945435,1473.940918 1365.801025,1473.929321 
z"/>
<path fill="#000000" opacity="1.000000" stroke="none" 
	d="
M1059.370361,1473.967041 
	C1059.282715,1475.459351 1059.118774,1476.951660 1059.118408,1478.443970 
	C1059.105591,1531.499878 1059.106689,1584.555908 1059.114746,1637.611816 
	C1059.114868,1638.940674 1059.213257,1640.269653 1059.350586,1642.104980 
	C1046.959473,1644.088379 1034.462891,1645.411133 1022.011780,1647.074585 
	C996.546326,1650.476318 970.975525,1648.516846 945.151245,1648.519653 
	C944.947632,1645.712402 945.124695,1643.218994 945.125244,1640.725464 
	C945.140259,1572.573242 945.136047,1504.421143 945.142029,1436.268921 
	C945.142212,1433.937134 945.213501,1431.605469 945.699097,1428.745483 
	C976.355164,1428.217285 1006.563721,1428.217285 1037.109375,1428.217285 
	C1037.109375,1405.798096 1037.109375,1384.052856 1037.109375,1362.159302 
	C1044.592041,1360.148682 1051.796631,1358.212769 1059.014160,1356.792358 
	C1059.044678,1391.546753 1059.051758,1425.785645 1059.092651,1460.024536 
	C1059.098267,1464.672119 1059.273560,1469.319580 1059.370361,1473.967041 
z"/>
<path fill="#0B472A" opacity="1.000000" stroke="none" 
	d="
M524.835449,980.854736 
	C524.890076,983.349060 524.992004,985.843445 524.992310,988.337769 
	C525.000916,1058.064087 525.000122,1127.790527 524.994995,1197.516846 
	C524.994812,1199.679321 524.931152,1201.841797 524.401367,1204.474121 
	C492.562714,1204.952026 461.219757,1204.960083 429.876770,1204.968140 
	C429.621460,1204.823242 429.425690,1204.620850 429.144043,1204.205566 
	C427.525177,1195.039307 425.880066,1186.052490 424.620575,1177.011841 
	C422.952271,1165.036499 420.878204,1153.056519 420.240753,1141.011719 
	C419.023468,1118.011475 418.038452,1094.959717 418.178192,1071.936890 
	C418.336151,1045.922363 421.950073,1020.146240 426.462128,994.529663 
	C427.211395,990.275696 428.038696,986.035461 428.822937,981.386353 
	C428.815948,980.983887 429.005829,980.802002 429.549774,980.797852 
	C461.674286,980.814087 493.254883,980.834412 524.835449,980.854736 
z"/>
<path fill="#444709" opacity="1.000000" stroke="none" 
	d="
M429.876465,1205.378052 
	C461.219757,1204.960083 492.562714,1204.952026 524.355835,1204.936279 
	C524.868225,1205.924805 524.985046,1206.921021 524.984985,1207.917236 
	C524.978271,1278.031372 524.962158,1348.145630 524.890137,1418.739502 
	C513.316833,1401.537964 500.966125,1384.337402 490.443512,1366.082886 
	C461.574982,1316.002319 441.576202,1262.427612 429.876465,1205.378052 
z"/>
<path fill="#470D0D" opacity="1.000000" stroke="none" 
	d="
M1480.092773,1070.010132 
	C1480.057007,1009.711060 1480.016479,949.411987 1479.990112,889.112915 
	C1479.985352,878.286011 1480.038696,867.459045 1480.128540,856.142944 
	C1488.966064,877.869385 1498.578857,899.797485 1506.322021,922.366943 
	C1518.551147,958.011780 1525.781128,994.895325 1529.791992,1032.357178 
	C1531.096680,1044.542847 1531.526489,1056.822266 1532.465210,1069.509521 
	C1532.573975,1069.960449 1532.317383,1070.055664 1531.718262,1070.056763 
	C1514.110352,1070.041870 1497.101562,1070.026001 1480.092773,1070.010132 
z"/>
<path fill="#470D0D" opacity="1.000000" stroke="none" 
	d="
M1366.857910,694.624390 
	C1366.610229,697.297119 1366.039429,699.728943 1366.038330,702.161011 
	C1365.993896,807.016907 1366.000610,911.872803 1365.996826,1016.728699 
	C1365.996704,1019.224792 1365.948120,1021.720947 1365.427734,1024.675293 
	C1263.043213,1025.129395 1161.153442,1025.125244 1059.204834,1024.644165 
	C1059.178589,991.812866 1059.211060,959.458435 1059.582153,927.105835 
	C1078.600952,935.152344 1095.870239,945.614746 1112.180298,958.405396 
	C1126.754883,929.253296 1141.011597,900.737244 1155.320435,872.116699 
	C1138.698975,859.167603 1121.235352,848.450989 1102.415771,840.321167 
	C1088.418457,834.274414 1073.728394,829.830627 1059.254150,824.506592 
	C1059.161255,824.340210 1058.984741,824.002686 1058.984741,824.002686 
	C1059.004150,771.980225 1059.023560,719.957703 1059.036133,667.218933 
	C1059.029419,666.502625 1059.017090,666.006897 1059.017090,666.006897 
	C1059.035767,624.620728 1059.054443,583.234558 1059.072998,541.373169 
	C1074.411377,543.741760 1089.901489,545.944824 1105.062622,549.536316 
	C1185.595581,568.614197 1258.119507,604.381775 1322.852905,655.805969 
	C1337.549683,667.480957 1351.139893,680.549072 1365.548462,693.112793 
	C1366.171875,693.627563 1366.486206,694.005615 1366.857910,694.624390 
z"/>
<path fill="#0B472A" opacity="1.000000" stroke="none" 
	d="
M1480.059326,1070.477173 
	C1497.101562,1070.026001 1514.110352,1070.041870 1531.589600,1070.103394 
	C1531.726929,1089.409790 1531.768799,1108.686890 1530.932983,1127.925903 
	C1530.341675,1141.534546 1528.980225,1155.145996 1527.221924,1168.659912 
	C1524.044556,1193.081665 1519.658325,1217.332764 1512.178223,1240.835083 
	C1505.322388,1262.375610 1497.780029,1283.703613 1490.202393,1305.005249 
	C1487.558594,1312.437622 1483.907471,1319.511597 1480.416016,1326.941162 
	C1480.072388,1317.978760 1479.991333,1308.824463 1479.991699,1299.670044 
	C1479.994629,1223.428101 1480.012573,1147.186157 1480.059326,1070.477173 
z"/>
<path fill="#470D0D" opacity="1.000000" stroke="none" 
	d="
M524.879272,980.401917 
	C493.254883,980.834412 461.674286,980.814087 429.644592,980.706787 
	C445.356415,901.652161 476.954559,829.469666 524.596924,764.032410 
	C524.923706,806.604614 524.986389,849.358215 525.000244,892.111755 
	C525.009705,921.390869 524.951172,950.670044 524.879272,980.401917 
z"/>
<path fill="#28FF98" opacity="1.000000" stroke="none" 
	d="
M1058.593140,824.009277 
	C1058.984741,824.002686 1059.161255,824.340210 1059.185791,824.990112 
	C1059.169312,830.798645 1059.103760,835.957214 1059.091187,841.115845 
	C1059.021484,869.575439 1058.964966,898.035034 1058.536377,926.384216 
	C1036.318970,917.309265 1013.658203,912.390503 989.971008,913.174683 
	C982.770325,913.413086 975.450989,913.907654 968.455200,915.481445 
	C960.471985,917.277466 952.789368,920.409546 944.615356,922.984619 
	C923.872131,932.032532 913.055725,948.176941 912.221130,969.947083 
	C911.257874,995.075500 921.623657,1014.562561 945.326172,1026.098633 
	C949.424988,1027.893555 953.143311,1029.895630 957.113647,1030.935547 
	C974.776489,1035.562134 992.519775,1039.880615 1010.217896,1044.373779 
	C1026.473389,1048.500610 1042.708374,1052.708740 1059.281738,1057.054199 
	C1069.841675,1061.202515 1080.292847,1064.694824 1090.262207,1069.242798 
	C1121.087036,1083.305054 1143.035889,1106.305054 1155.098877,1137.859985 
	C1168.591919,1173.155762 1169.400513,1209.746826 1162.036133,1246.417725 
	C1155.086914,1281.020996 1137.433350,1309.369873 1109.047729,1330.721802 
	C1093.858032,1342.147583 1076.755493,1349.857788 1059.001221,1356.276855 
	C1051.796631,1358.212769 1044.592041,1360.148682 1037.109375,1362.159302 
	C1037.109375,1384.052856 1037.109375,1405.798096 1037.109375,1428.217285 
	C1006.563721,1428.217285 976.355164,1428.217285 945.718994,1428.301758 
	C945.291382,1428.386353 945.206970,1428.121094 945.136841,1427.546387 
	C945.067993,1374.413086 945.069275,1321.854736 945.070496,1269.296265 
	C945.070496,1269.296265 945.235840,1269.130249 945.618896,1269.128174 
	C949.736023,1269.750854 953.459290,1270.823120 957.206360,1270.914307 
	C967.506104,1271.164917 977.828552,1271.332031 988.118896,1270.934204 
	C1006.656982,1270.217651 1024.312866,1265.979248 1039.949951,1255.529297 
	C1048.764893,1249.638550 1056.111328,1242.269043 1060.107178,1231.722900 
	C1064.738159,1221.883667 1066.056885,1211.685181 1064.886597,1201.416382 
	C1064.100342,1194.516846 1061.643799,1187.807861 1059.883301,1180.664062 
	C1052.959839,1166.324707 1041.353882,1157.120117 1026.948608,1153.255371 
	C999.964172,1146.015503 972.525574,1140.467896 945.275940,1134.216431 
	C945.275940,1134.216431 945.217163,1133.975708 945.147461,1133.424561 
	C945.074341,1113.570557 945.037292,1094.267578 945.101379,1074.964844 
	C945.111572,1071.877197 944.622437,1069.941650 940.813049,1069.956909 
	C904.705383,1070.101562 868.597351,1070.124390 832.489380,1070.182129 
	C832.489380,1070.182129 832.149475,1070.061279 831.888733,1069.680664 
	C828.084106,1061.794312 823.591309,1054.583252 821.154358,1046.733887 
	C808.069824,1004.587830 807.520142,962.090088 820.790527,919.974060 
	C831.734558,885.241089 853.430847,858.623962 885.356079,840.601929 
	C899.355469,832.699158 914.170654,826.940430 929.703308,822.916565 
	C931.793640,822.375122 934.375671,822.525818 934.344482,818.983643 
	C934.162781,798.341919 934.136780,777.698792 934.151978,756.863037 
	C934.245728,756.669922 934.137512,756.254456 934.137512,756.254456 
	C934.137512,756.254456 934.297913,756.391785 934.461243,756.393311 
	C934.624573,756.394836 934.774719,756.246643 934.774719,756.246643 
	C938.104126,755.991150 941.433594,755.735718 945.002930,755.091736 
	C975.487854,754.703247 1005.732910,754.703247 1036.565308,754.703247 
	C1036.565308,757.014404 1036.565308,758.801697 1036.565308,760.589050 
	C1036.565430,778.550293 1036.653442,796.512207 1036.497681,814.472107 
	C1036.463379,818.428894 1037.523438,819.786682 1041.757935,820.185791 
	C1047.310059,820.709045 1052.726685,822.672058 1058.593140,824.009277 
z"/>
<path fill="#1A1C04" opacity="1.000000" stroke="none" 
	d="
M933.663452,756.191895 
	C934.137512,756.254456 934.245728,756.669922 933.680054,756.844971 
	C835.092285,757.030090 737.070251,757.040161 639.048157,757.050171 
	C639.042236,756.874023 639.036377,756.697937 639.033325,756.257690 
	C734.590942,756.006775 830.145752,756.019287 925.700500,756.037231 
	C928.196838,756.037659 930.693115,756.097290 933.663452,756.191895 
z"/>
<path fill="#478467" opacity="1.000000" stroke="none" 
	d="
M934.825073,756.049561 
	C934.774719,756.246643 934.624573,756.394836 934.543579,756.327209 
	C934.600159,756.123840 934.737793,755.988098 934.825073,756.049561 
z"/>
<path fill="#0B472A" opacity="1.000000" stroke="none" 
	d="
M639.024963,757.513916 
	C737.070251,757.040161 835.092285,757.030090 933.586304,757.038086 
	C934.136780,777.698792 934.162781,798.341919 934.344482,818.983643 
	C934.375671,822.525818 931.793640,822.375122 929.703308,822.916565 
	C914.170654,826.940430 899.355469,832.699158 885.356079,840.601929 
	C853.430847,858.623962 831.734558,885.241089 820.790527,919.974060 
	C807.520142,962.090088 808.069824,1004.587830 821.154358,1046.733887 
	C823.591309,1054.583252 828.084106,1061.794312 831.721069,1069.614258 
	C767.881042,1069.954590 703.947937,1069.980835 639.555237,1070.011841 
	C639.055969,1069.019287 638.981506,1068.021973 638.981506,1067.024658 
	C638.984680,964.008972 638.993408,860.993347 639.024963,757.513916 
z"/>
<path fill="#160808" opacity="1.000000" stroke="none" 
	d="
M1058.546753,666.006958 
	C1059.017090,666.006897 1059.029419,666.502625 1059.020020,666.750366 
	C1021.952209,666.998108 984.893799,666.998108 947.835388,666.998108 
	C947.834534,666.667786 947.833679,666.337402 947.832825,666.007080 
	C984.580688,666.007080 1021.328552,666.007080 1058.546753,666.006958 
z"/>
<path fill="#61FE77" opacity="1.000000" stroke="none" 
	d="
M944.676270,1269.165649 
	C945.069275,1321.854736 945.067993,1374.413086 945.055786,1427.433228 
	C941.919128,1427.894897 938.793457,1427.894897 935.056702,1427.894897 
	C935.056702,1407.322632 935.056702,1386.924194 935.056702,1367.232788 
	C917.005371,1363.054443 899.516602,1359.672974 882.419678,1354.891113 
	C857.331848,1347.874512 833.142517,1338.290405 811.329346,1323.801392 
	C803.222229,1318.416382 796.146729,1311.436768 788.874268,1304.880737 
	C787.761047,1303.877197 787.225098,1300.727783 787.949829,1299.412720 
	C802.734985,1272.585327 817.742432,1245.880615 832.710205,1219.154053 
	C832.943787,1218.736938 833.235962,1218.352539 833.665405,1217.704590 
	C865.732300,1245.757446 902.569519,1262.697632 944.676270,1269.165649 
z"/>
<path fill="#000100" opacity="1.000000" stroke="none" 
	d="
M945.237549,1134.670654 
	C972.525574,1140.467896 999.964172,1146.015503 1026.948608,1153.255371 
	C1041.353882,1157.120117 1052.959839,1166.324707 1059.658691,1181.007568 
	C1059.407471,1198.007202 1059.324829,1214.313599 1059.277710,1230.620239 
	C1059.276367,1231.072632 1059.656616,1231.526001 1059.858887,1231.979004 
	C1056.111328,1242.269043 1048.764893,1249.638550 1039.949951,1255.529297 
	C1024.312866,1265.979248 1006.656982,1270.217651 988.118896,1270.934204 
	C977.828552,1271.332031 967.506104,1271.164917 957.206360,1270.914307 
	C953.459290,1270.823120 949.736023,1269.750854 945.643066,1269.013550 
	C945.255859,1224.308838 945.227539,1179.716797 945.237549,1134.670654 
z"/>
<path fill="#61FE77" opacity="1.000000" stroke="none" 
	d="
M832.635620,1070.507080 
	C868.597351,1070.124390 904.705383,1070.101562 940.813049,1069.956909 
	C944.622437,1069.941650 945.111572,1071.877197 945.101379,1074.964844 
	C945.037292,1094.267578 945.074341,1113.570557 945.069763,1133.328003 
	C919.091370,1127.952881 893.074097,1122.087891 870.086670,1107.839111 
	C854.890198,1098.419556 842.857239,1085.547974 832.635620,1070.507080 
z"/>
<path fill="#0B472A" opacity="1.000000" stroke="none" 
	d="
M1059.014160,1356.792358 
	C1076.755493,1349.857788 1093.858032,1342.147583 1109.047729,1330.721802 
	C1137.433350,1309.369873 1155.086914,1281.020996 1162.036133,1246.417725 
	C1169.400513,1209.746826 1168.591919,1173.155762 1155.098877,1137.859985 
	C1143.035889,1106.305054 1121.087036,1083.305054 1090.262207,1069.242798 
	C1080.292847,1064.694824 1069.841675,1061.202515 1059.314453,1056.594238 
	C1059.099854,1045.681030 1059.181641,1035.401001 1059.263550,1025.121094 
	C1161.153442,1025.125244 1263.043213,1025.129395 1365.384766,1025.153076 
	C1365.897827,1054.827271 1366.008301,1084.482056 1366.011841,1114.136841 
	C1366.026001,1232.430542 1366.007080,1350.724121 1365.996216,1469.017822 
	C1365.996094,1470.349976 1365.941284,1471.682129 1365.856445,1473.471802 
	C1263.945435,1473.940918 1162.089722,1473.952515 1059.802246,1473.965576 
	C1059.273560,1469.319580 1059.098267,1464.672119 1059.092651,1460.024536 
	C1059.051758,1425.785645 1059.044678,1391.546753 1059.014160,1356.792358 
z"/>
<path fill="#000100" opacity="1.000000" stroke="none" 
	d="
M1059.204834,1024.644165 
	C1059.181641,1035.401001 1059.099854,1045.681030 1058.985107,1056.420898 
	C1042.708374,1052.708740 1026.473389,1048.500610 1010.217896,1044.373779 
	C992.519775,1039.880615 974.776489,1035.562134 957.113647,1030.935547 
	C953.143311,1029.895630 949.424988,1027.893555 945.349731,1025.639404 
	C945.064514,990.950012 945.020325,956.955505 944.976135,922.961060 
	C952.789368,920.409546 960.471985,917.277466 968.455200,915.481445 
	C975.450989,913.907654 982.770325,913.413086 989.971008,913.174683 
	C1013.658203,912.390503 1036.318970,917.309265 1058.592041,926.552551 
	C1059.015015,926.831299 1059.243408,927.104065 1059.243408,927.104065 
	C1059.211060,959.458435 1059.178589,991.812866 1059.204834,1024.644165 
z"/>
<path fill="#64C47B" opacity="1.000000" stroke="none" 
	d="
M1059.582031,927.105835 
	C1059.243408,927.104065 1059.015015,926.831299 1058.959473,926.662964 
	C1058.964966,898.035034 1059.021484,869.575439 1059.091187,841.115845 
	C1059.103760,835.957214 1059.169312,830.798645 1059.278687,825.156494 
	C1073.728394,829.830627 1088.418457,834.274414 1102.415771,840.321167 
	C1121.235352,848.450989 1138.698975,859.167603 1155.320435,872.116699 
	C1141.011597,900.737244 1126.754883,929.253296 1112.180298,958.405396 
	C1095.870239,945.614746 1078.600952,935.152344 1059.582031,927.105835 
z"/>
<path fill="#0B472A" opacity="1.000000" stroke="none" 
	d="
M944.615356,922.984619 
	C945.020325,956.955505 945.064514,990.950012 945.085205,1025.403809 
	C921.623657,1014.562561 911.257874,995.075500 912.221130,969.947083 
	C913.055725,948.176941 923.872131,932.032532 944.615356,922.984619 
z"/>
<path fill="#0B472A" opacity="1.000000" stroke="none" 
	d="
M1060.107178,1231.722900 
	C1059.656616,1231.526001 1059.276367,1231.072632 1059.277710,1230.620239 
	C1059.324829,1214.313599 1059.407471,1198.007202 1059.709717,1181.357178 
	C1061.643799,1187.807861 1064.100342,1194.516846 1064.886597,1201.416382 
	C1066.056885,1211.685181 1064.738159,1221.883667 1060.107178,1231.722900 
z"/>
</svg>