<svg version="1.1" id="Layer_1" xmlns="http://www.w3.org/2000/svg" xmlns:xlink="http://www.w3.org/1999/xlink" x="0px" y="0px"
	 width="100%" viewBox="0 0 2048 2048" enable-background="new 0 0 2048 2048" xml:space="preserve">
<path fill="#656463" opacity="1.000000" stroke="none" 
	d="
M1136.000000,2049.000000 
	C757.333313,2049.000000 379.166656,2049.000000 1.000000,2049.000000 
	C1.000000,1366.333374 1.000000,683.666687 1.000000,1.000000 
	C683.666687,1.000000 1366.333374,1.000000 2049.000000,1.000000 
	C2049.000000,683.666687 2049.000000,1366.333374 2049.000000,2049.000000 
	C1744.833374,2049.000000 1440.666626,2049.000000 1136.000000,2049.000000 
M910.503967,1597.918091 
	C910.502563,1594.001953 910.501160,1590.085693 910.684021,1585.316528 
	C910.627014,1584.161377 910.570007,1583.006348 910.501038,1580.932861 
	C910.501038,1455.118896 910.501038,1329.304932 910.501038,1202.180786 
	C907.446838,1203.991943 905.894531,1204.869507 904.384338,1205.814575 
	C886.588989,1216.950195 869.029480,1228.491211 850.883850,1239.022705 
	C844.604431,1242.667236 842.762451,1246.583252 842.816040,1253.512451 
	C843.137268,1295.005493 842.993347,1336.502075 842.987915,1377.997559 
	C842.979248,1443.823608 842.960693,1509.649780 842.928894,1575.475830 
	C842.927307,1578.687134 842.646729,1581.553711 846.959778,1582.776978 
	C862.655884,1587.228882 878.216919,1592.156250 893.905090,1596.637573 
	C899.154358,1598.137085 904.631714,1598.838257 910.339783,1599.637207 
	C910.518250,1599.390259 910.579224,1599.117065 910.503967,1597.918091 
M1290.470703,1062.381836 
	C1258.135010,1086.450928 1225.762207,1110.470947 1193.570435,1134.731201 
	C1191.926392,1135.970215 1191.129028,1139.273438 1191.127075,1141.616577 
	C1191.004883,1287.765137 1191.005493,1433.913818 1191.008911,1580.062500 
	C1191.008911,1581.984009 1191.186646,1583.905396 1191.309937,1586.404907 
	C1193.521362,1585.837158 1195.122314,1585.536499 1196.649292,1585.017944 
	C1224.465088,1575.569946 1251.103760,1563.382202 1277.284302,1550.158813 
	C1282.448120,1547.550781 1289.251587,1545.540649 1291.825928,1541.196777 
	C1294.417114,1536.824463 1292.683960,1529.886963 1292.834473,1524.073120 
	C1292.860352,1523.073975 1292.827148,1522.073486 1292.827271,1521.073608 
	C1292.833008,1422.086182 1292.862549,1323.098633 1292.836426,1224.111206 
	C1292.822144,1170.119385 1292.713745,1116.127686 1292.531982,1061.699463 
	C1292.035034,1061.806641 1291.538086,1061.913696 1290.470703,1062.381836 
M1383.124023,1083.921631 
	C1383.176392,1091.271484 1383.228760,1098.621338 1383.192749,1106.908447 
	C1383.215698,1124.937744 1383.238770,1142.967163 1383.119385,1161.817993 
	C1383.168701,1163.202759 1383.218018,1164.587524 1383.180298,1166.773926 
	C1383.212402,1167.847168 1383.244507,1168.920288 1383.135742,1170.921875 
	C1383.178833,1177.605835 1383.221802,1184.289917 1383.174438,1191.910645 
	C1383.199707,1199.936768 1383.224976,1207.962769 1383.127319,1216.649048 
	C1383.170776,1217.092651 1383.214233,1217.536377 1383.173340,1218.867310 
	C1383.210938,1221.242920 1383.248535,1223.618408 1383.142700,1226.857910 
	C1383.191284,1228.895020 1383.239868,1230.932007 1383.193848,1233.906128 
	C1383.215210,1251.601685 1383.236450,1269.297363 1383.109863,1287.857178 
	C1383.152710,1289.897339 1383.195435,1291.937378 1383.151123,1294.864990 
	C1383.190796,1297.241089 1383.230469,1299.617310 1383.125977,1302.871216 
	C1383.177612,1305.237793 1383.229248,1307.604370 1383.190674,1310.908203 
	C1383.214233,1335.603149 1383.237793,1360.298218 1383.117676,1385.815430 
	C1383.169067,1387.201416 1383.220337,1388.587280 1383.185669,1390.906860 
	C1383.206665,1395.935059 1383.227783,1400.963135 1383.121094,1406.650146 
	C1383.164062,1407.093384 1383.206909,1407.536499 1383.161133,1408.915894 
	C1383.186523,1427.273804 1383.211914,1445.631592 1383.100952,1464.731445 
	C1383.145508,1465.481201 1383.190063,1466.231079 1383.146729,1467.911499 
	C1383.179688,1472.588501 1383.212646,1477.265503 1383.341675,1482.467285 
	C1383.901001,1482.315308 1384.460449,1482.163208 1385.583008,1481.656616 
	C1393.147583,1474.876709 1400.826294,1468.219360 1408.256226,1461.295044 
	C1433.866333,1437.427612 1458.426270,1412.547729 1480.896973,1385.654419 
	C1483.817627,1382.158936 1485.150879,1378.626343 1485.132324,1373.942627 
	C1484.957642,1329.792725 1485.043945,1285.642090 1485.042358,1241.491577 
	C1485.037842,1115.704224 1485.027710,989.916931 1485.019775,864.129639 
	C1485.019653,861.739929 1485.019653,859.350220 1485.019653,856.960510 
	C1484.547729,856.798584 1484.075928,856.636658 1483.604004,856.474792 
	C1480.448364,859.844788 1477.405762,863.329529 1474.119141,866.566650 
	C1444.688965,895.555908 1415.195557,924.481140 1385.818237,953.523804 
	C1384.438843,954.887573 1383.209229,957.180725 1383.205200,959.043823 
	C1383.116821,1000.360168 1383.211060,1041.676880 1383.124023,1083.921631 
M1052.154297,1696.550171 
	C1052.449097,1696.965454 1052.743896,1697.380615 1053.956909,1697.925049 
	C1059.408813,1697.621582 1064.884277,1697.541748 1070.308350,1696.972290 
	C1085.672607,1695.359009 1101.134888,1694.254028 1116.347900,1691.695801 
	C1212.310791,1675.558838 1301.031738,1641.101440 1381.903442,1586.594604 
	C1460.294678,1533.759644 1524.494263,1467.137207 1575.740601,1387.977417 
	C1619.217529,1320.819092 1648.173218,1247.492065 1665.378784,1169.535034 
	C1669.707764,1149.920532 1672.283447,1129.884155 1674.923584,1109.943359 
	C1676.917236,1094.884888 1678.345703,1079.692993 1678.908325,1064.518921 
	C1679.572876,1046.596313 1679.276489,1028.624634 1678.937744,1010.682861 
	C1678.687134,997.409180 1678.152832,984.107666 1676.928589,970.894165 
	C1675.487061,955.335815 1673.539062,939.801392 1671.158081,924.357178 
	C1661.754150,863.355957 1643.288086,805.100220 1617.315063,749.177612 
	C1613.342407,740.623962 1609.094360,732.198303 1604.160889,722.039917 
	C1602.429688,724.538208 1601.544434,726.188171 1600.318359,727.525757 
	C1590.859985,737.843628 1581.456543,748.217712 1571.752441,758.301331 
	C1569.094360,761.063477 1568.852905,763.164917 1570.439575,766.529968 
	C1583.604492,794.451416 1594.874390,823.166016 1603.389282,852.813171 
	C1621.874512,917.175171 1633.457886,982.524109 1629.015869,1049.916870 
	C1628.220825,1061.981201 1628.172363,1074.115234 1626.889893,1086.122070 
	C1624.911621,1104.642944 1623.002930,1123.237671 1619.601440,1141.528809 
	C1604.106812,1224.850220 1572.260986,1301.713257 1525.578613,1372.277222 
	C1470.486816,1455.552856 1398.315308,1520.640625 1311.599243,1569.768677 
	C1262.726074,1597.457275 1210.687622,1617.230713 1156.233398,1630.700317 
	C1122.343750,1639.083008 1087.935181,1644.043457 1052.577759,1645.225586 
	C1052.294312,1645.408081 1052.192993,1645.663086 1052.180420,1646.924927 
	C1052.205444,1663.279541 1052.230469,1679.634277 1052.154297,1696.550171 
M1106.348633,1140.400024 
	C1124.892822,1125.180786 1143.550903,1110.097656 1161.960083,1094.716675 
	C1215.791992,1049.739746 1269.746826,1004.923340 1321.298462,957.275635 
	C1374.307983,908.280396 1426.148682,858.123535 1475.872314,805.800476 
	C1510.996948,768.839783 1545.802490,731.576111 1580.891357,694.581299 
	C1584.314331,690.972412 1584.745728,688.333069 1582.091553,683.947266 
	C1539.981567,614.359741 1488.661377,552.585205 1426.179443,500.363007 
	C1358.958618,444.179962 1283.268433,403.503113 1199.473633,377.947845 
	C1157.236084,365.066437 1114.074341,357.091217 1070.006348,354.175690 
	C1064.119263,353.786224 1058.184204,354.122162 1052.447266,354.122162 
	C1052.447266,371.825134 1052.447266,389.095764 1052.447266,406.783844 
	C1059.199341,407.202271 1065.612183,407.600433 1072.025024,407.996979 
	C1106.742554,410.143921 1140.739014,416.423981 1174.210571,425.754791 
	C1242.792969,444.873383 1306.181030,474.908325 1363.644409,516.970825 
	C1426.265015,562.808472 1479.018799,618.120056 1521.178101,683.420105 
	C1523.703979,687.332214 1523.669189,689.622864 1520.338379,693.046021 
	C1484.081299,730.308594 1448.573120,768.318787 1411.718628,804.976685 
	C1367.536987,848.922852 1322.271729,891.780457 1277.408691,935.040100 
	C1271.089111,941.133972 1264.390991,946.835266 1257.649536,952.915466 
	C1241.206421,928.913818 1220.434570,909.935364 1197.443359,893.492676 
	C1178.492554,879.939453 1158.897827,867.245605 1139.190918,854.800415 
	C1110.738281,836.832153 1081.963379,819.371582 1053.213013,801.880127 
	C1050.113525,799.994446 1048.888550,798.131592 1048.905151,794.474304 
	C1049.050903,762.475403 1048.983887,730.475464 1048.979980,698.475891 
	C1048.979736,696.365356 1048.979980,694.254761 1048.979980,691.956055 
	C1032.789062,691.956055 1017.340881,691.956055 1001.566528,692.142517 
	C1001.536011,692.490723 1001.505493,692.838928 1001.490540,694.015991 
	C1001.472595,703.178955 1001.438538,712.341919 1001.439575,721.504883 
	C1001.443420,755.660156 1001.482422,789.815491 1001.435059,823.970642 
	C1001.430054,827.538940 1002.263550,829.960266 1005.689270,832.052490 
	C1036.817505,851.063782 1068.054688,869.917542 1098.739624,889.627441 
	C1124.365112,906.087463 1149.530762,923.295654 1174.444702,940.820068 
	C1190.474487,952.095398 1203.866211,966.303162 1215.361816,982.255798 
	C1217.646606,985.426208 1217.817505,987.477234 1214.485229,990.012512 
	C1208.391235,994.648865 1202.563232,999.638184 1196.677124,1004.543762 
	C1152.143555,1041.658691 1107.645142,1078.815918 1063.039795,1115.844482 
	C1060.490479,1117.960693 1059.988892,1120.175293 1059.989502,1123.152710 
	C1060.025879,1283.771851 1060.013794,1444.390991 1060.006714,1605.010132 
	C1060.006592,1606.930786 1060.006592,1608.851440 1060.006592,1611.508301 
	C1066.834717,1610.903076 1072.774170,1610.567871 1078.659302,1609.810303 
	C1087.511719,1608.671021 1096.325928,1607.235962 1105.395874,1605.157715 
	C1105.582764,1603.006836 1105.932983,1600.855957 1105.933228,1598.705078 
	C1105.954346,1446.113159 1105.947510,1293.521118 1106.348633,1140.400024 
M1227.061890,763.274109 
	C1227.047363,763.554932 1227.120605,763.810547 1227.399780,764.967712 
	C1227.399780,774.162964 1227.399780,783.358215 1227.399780,792.873291 
	C1245.874512,792.873291 1263.268555,792.881714 1280.662476,792.835938 
	C1281.234009,792.834473 1281.804077,792.282654 1282.482300,791.750244 
	C1282.545288,791.486511 1282.514526,791.234070 1282.274902,790.200256 
	C1282.306519,789.134827 1282.338257,788.069458 1282.539917,786.516846 
	C1282.480103,785.675964 1282.420410,784.835022 1282.252686,783.063232 
	C1282.232666,780.564392 1282.211304,778.065491 1282.192993,775.566650 
	C1281.870483,731.579163 1268.042847,691.850708 1241.960938,656.917603 
	C1206.422241,609.318115 1158.333130,581.123291 1099.926392,569.331970 
	C1099.816650,569.170654 1099.707031,569.009277 1099.562012,567.930359 
	C1099.562012,533.407654 1099.562012,498.884979 1099.562012,463.915283 
	C1096.499756,463.915283 1094.358521,463.915070 1092.217285,463.915314 
	C1064.436523,463.918854 1036.655762,463.896118 1008.875000,463.934845 
	C989.248901,463.962219 969.622864,464.072906 949.470703,464.350464 
	C949.393127,464.887115 949.315552,465.423798 949.157104,466.899658 
	C949.162354,499.051544 949.087219,531.203857 949.266296,563.354797 
	C949.290833,567.768127 948.370728,569.613953 943.557739,570.372681 
	C924.379822,573.395935 905.942932,579.110107 888.506165,587.723389 
	C821.876831,620.636353 779.513672,672.192749 767.440430,746.595032 
	C760.418213,789.869690 766.858032,831.220337 787.365540,870.087280 
	C807.517456,908.280457 836.798950,938.228882 873.072632,961.095886 
	C906.024353,981.868713 939.700439,1001.494690 973.144958,1021.479431 
	C975.954956,1023.158508 977.138306,1024.834351 977.019409,1028.121460 
	C976.766724,1035.109131 977.124207,1042.120239 976.814941,1049.103394 
	C976.735779,1050.890503 975.557312,1053.262695 974.117554,1054.263428 
	C929.948242,1084.964233 885.684631,1115.529175 841.425842,1146.101196 
	C840.382690,1146.821777 839.228821,1147.381836 837.900330,1148.147217 
	C837.061096,1146.714600 836.288635,1145.644653 835.764587,1144.464478 
	C826.550781,1123.714966 820.555359,1102.302002 822.065552,1079.272827 
	C822.252258,1076.425781 821.448425,1073.513550 820.826965,1070.447021 
	C820.483398,1070.346069 820.174316,1070.408447 818.975525,1070.658203 
	C804.312988,1070.638306 789.649536,1070.702759 774.988647,1070.538208 
	C771.383911,1070.497681 770.147461,1071.555176 770.035217,1075.343994 
	C769.331604,1099.090698 772.859131,1122.220337 780.467773,1144.630493 
	C784.143372,1155.456299 789.133972,1165.835815 793.649475,1176.707153 
	C793.195068,1177.069092 792.472778,1177.737793 791.663452,1178.275391 
	C754.063660,1203.251343 716.395203,1228.124634 678.866882,1253.207520 
	C640.786377,1278.659546 602.843384,1304.317261 564.492432,1330.215454 
	C564.299072,1330.498779 564.248718,1330.805664 564.337524,1332.056152 
	C564.330811,1345.008911 564.190430,1357.964355 564.437622,1370.912231 
	C564.483337,1373.309082 565.538208,1376.135132 567.067932,1377.985229 
	C581.242554,1395.128906 595.623474,1412.101807 610.098389,1429.494873 
	C610.536682,1428.997925 610.974915,1428.500854 611.356384,1427.067627 
	C611.305725,1403.403076 611.255066,1379.738647 611.448425,1355.659058 
	C611.602478,1355.370972 611.691589,1355.063965 612.184265,1354.250122 
	C736.040710,1270.726074 859.897156,1187.202026 984.373657,1103.859375 
	C984.787476,1103.977783 985.201355,1104.096191 985.644775,1105.124390 
	C985.648132,1264.238037 985.650452,1423.351562 985.665283,1582.465210 
	C985.665466,1584.624146 985.823181,1586.782959 985.809753,1589.505249 
	C985.842163,1589.692993 985.874512,1589.880737 985.719666,1590.980835 
	C985.838806,1597.626221 985.957947,1604.271606 986.239441,1611.164673 
	C986.239441,1611.164673 986.649841,1611.303711 986.649841,1611.303711 
	C986.649841,1611.303711 987.065063,1611.176270 987.991699,1611.162231 
	C993.298218,1611.206421 998.604797,1611.250488 1004.183228,1611.466309 
	C1004.183228,1611.466309 1004.659058,1611.502686 1004.659058,1611.502686 
	C1004.659058,1611.502686 1005.097900,1611.322021 1005.899353,1611.330688 
	C1007.234497,1611.363770 1008.569580,1611.396851 1010.347900,1611.622192 
	C1010.347900,1611.622192 1010.829651,1611.673828 1010.829651,1611.673828 
	C1010.829651,1611.673828 1011.304810,1611.578857 1012.200256,1611.551270 
	C1015.666809,1611.661743 1019.138123,1611.694702 1022.598389,1611.907471 
	C1025.328369,1612.075317 1026.526733,1610.977661 1026.494019,1608.216919 
	C1026.367310,1597.481567 1026.317139,1586.745239 1026.435547,1575.089355 
	C1026.469727,1574.091187 1026.533691,1573.093018 1026.533569,1572.094849 
	C1026.522095,1460.035522 1026.520508,1347.976196 1026.477661,1235.916870 
	C1026.469360,1214.278442 1026.299683,1192.640137 1026.399048,1170.144531 
	C1026.338501,1163.765991 1026.277954,1157.387573 1026.411377,1150.108521 
	C1026.334595,1146.739380 1026.257690,1143.370239 1026.375488,1139.102051 
	C1026.317139,1135.736572 1026.258667,1132.371094 1026.393921,1128.185425 
	C1026.333252,1126.790283 1026.272583,1125.395264 1026.401489,1123.202393 
	C1026.325806,1111.470947 1026.250244,1099.739624 1026.359009,1087.169067 
	C1026.291748,1080.107300 1026.224609,1073.045410 1026.348267,1065.064697 
	C1026.281250,1045.401489 1026.214355,1025.738281 1026.329102,1005.181946 
	C1026.259766,1002.762085 1026.190430,1000.342163 1026.286865,997.209534 
	C1026.224121,996.485657 1026.161499,995.761841 1026.179077,994.509338 
	C1026.129517,994.338074 1026.079956,994.166870 1025.794922,993.348206 
	C993.375183,974.211426 960.874512,955.209900 928.563782,935.890747 
	C906.680054,922.806152 884.845520,909.543091 866.313049,891.744019 
	C829.874207,856.747009 810.674744,814.664185 815.192261,763.450684 
	C818.248291,728.805176 831.790039,698.481750 855.406067,672.853760 
	C885.382202,640.323669 923.715454,624.502197 966.543518,618.038879 
	C976.824890,616.487305 987.242126,615.836548 998.032837,614.726562 
	C998.032837,612.268127 998.029053,610.137146 998.033386,608.006165 
	C998.097229,577.011475 998.162048,546.016785 998.518433,514.802368 
	C998.705444,514.644287 998.869446,514.465149 999.934937,514.146057 
	C1004.628662,514.187805 1009.322449,514.229492 1014.798889,514.506348 
	C1021.522156,514.436890 1028.245361,514.367432 1035.897095,514.189514 
	C1040.272339,514.219482 1044.647461,514.249512 1049.353638,514.544312 
	C1049.580933,514.714233 1049.823364,514.858704 1050.290894,515.897766 
	C1050.290894,548.794800 1050.290894,581.691833 1050.290894,614.658447 
	C1052.458618,614.908020 1053.598511,615.083984 1054.745239,615.164795 
	C1096.734375,618.126282 1135.411865,630.577026 1169.175537,656.203552 
	C1204.436035,682.966370 1223.735229,718.672119 1227.061890,763.274109 
M648.779114,481.297150 
	C646.377197,483.092865 643.929749,484.831116 641.579956,486.692688 
	C579.052124,536.229980 525.104370,593.685547 481.404327,660.558472 
	C419.191467,755.760864 384.759888,860.571228 373.875549,973.386841 
	C370.705902,1006.240051 370.903046,1039.209229 372.948334,1072.154175 
	C374.371460,1095.078125 377.081665,1117.841187 381.044312,1140.472290 
	C390.220276,1192.876953 404.962921,1243.578247 426.594360,1292.252075 
	C448.421997,1341.367432 476.143555,1386.960449 508.257172,1429.954956 
	C560.329285,1499.670654 623.332642,1557.638916 697.681458,1602.708618 
	C783.473145,1654.714844 876.028259,1687.619751 976.449097,1696.674561 
	C983.489075,1697.309204 990.570984,1697.477295 997.635010,1697.862549 
	C997.635010,1679.761108 997.635010,1662.521484 997.635010,1645.740356 
	C980.472534,1643.978271 963.734192,1642.708130 947.127075,1640.465942 
	C906.495361,1634.979736 867.400635,1623.658447 828.975159,1609.449097 
	C744.175232,1578.090698 669.703430,1530.728027 606.132874,1466.509033 
	C532.931580,1392.560913 478.963470,1306.775391 448.113892,1206.950928 
	C434.880859,1164.130981 426.348022,1120.425049 422.930573,1075.753784 
	C420.100677,1038.762329 419.414703,1001.763977 424.222870,964.848694 
	C428.506500,931.960388 433.920593,899.309753 442.958923,867.309814 
	C458.747742,811.409790 479.941498,757.802612 510.219391,708.080750 
	C537.111755,663.918457 569.114807,623.758911 605.512878,586.981812 
	C663.413757,528.477966 729.409668,481.966583 805.664307,450.532562 
	C858.961304,428.562225 914.213135,414.082611 971.727234,408.752991 
	C980.304871,407.958130 988.900940,407.363281 997.556213,406.670502 
	C997.556213,388.930267 997.556213,371.566803 997.556213,353.239532 
	C868.291321,361.073700 752.855835,404.596313 648.779114,481.297150 
M687.029236,1423.500000 
	C687.025085,1446.824951 686.927734,1470.150879 687.156067,1493.473633 
	C687.179749,1495.889648 688.468140,1499.187134 690.303345,1500.556641 
	C715.183044,1519.123901 741.696716,1535.121704 769.042664,1549.765137 
	C770.693909,1550.649414 772.490845,1551.261719 774.630615,1552.175903 
	C774.630615,1463.608154 774.630615,1375.917480 774.630615,1287.290161 
	C771.471680,1289.243896 768.947510,1290.730347 766.498291,1292.331421 
	C741.404602,1308.733887 716.370850,1325.229126 691.176758,1341.475586 
	C688.099426,1343.460083 686.926880,1345.450562 686.946899,1349.027588 
	C687.083740,1373.517822 687.027283,1398.009033 687.029236,1423.500000 
z"/>
<path fill="#40ECD0" opacity="1.000000" stroke="none" 
	d="
M1026.200195,1129.005615 
	C1026.258667,1132.371094 1026.317139,1135.736572 1025.932861,1139.589355 
	C1021.652771,1140.076538 1017.815308,1140.076538 1013.977844,1140.076538 
	C1013.932312,1140.509277 1013.886841,1140.942139 1013.841370,1141.374878 
	C1017.966675,1144.586304 1022.092041,1147.797729 1026.217407,1151.009033 
	C1026.277954,1157.387573 1026.338501,1163.765991 1025.982788,1170.602051 
	C1020.332397,1169.682861 1014.997925,1168.593140 1009.905396,1166.811646 
	C1007.253540,1165.884033 1004.925903,1163.868774 1002.642090,1162.099121 
	C1000.690247,1160.586914 999.009888,1158.724121 997.209534,1157.016357 
	C996.618835,1157.278076 996.028198,1157.539673 995.437500,1157.801392 
	C995.437500,1161.000488 995.363525,1164.201782 995.453857,1167.398315 
	C995.611572,1172.974243 996.173645,1178.556030 996.011047,1184.119141 
	C995.802124,1191.264771 999.472839,1199.406006 1004.963013,1201.718994 
	C1008.380920,1203.158813 1010.756104,1205.062622 1010.649780,1208.972778 
	C1010.535950,1213.159668 1007.494995,1214.382690 1004.055481,1215.263306 
	C998.807556,1216.606812 995.715332,1219.577759 995.881531,1225.518555 
	C996.006714,1229.992920 995.262268,1234.484131 995.157776,1238.973755 
	C994.703979,1258.465942 994.686890,1277.833618 999.937256,1296.982056 
	C1001.592590,1303.019287 1000.581177,1310.249756 999.146790,1316.560547 
	C997.141174,1325.385254 996.465210,1325.264771 1004.533630,1329.950684 
	C1008.476746,1332.240723 1008.943298,1335.958862 1008.740906,1339.905273 
	C1008.562195,1343.390625 1006.082092,1344.623901 1003.062805,1345.176636 
	C997.597229,1346.177246 995.027283,1349.626953 995.120911,1355.015137 
	C995.184204,1358.662231 995.832092,1362.302246 995.842041,1365.946411 
	C995.862793,1373.526611 996.711182,1381.330688 995.200562,1388.624512 
	C993.719543,1395.775513 992.694275,1402.545532 993.959106,1409.781006 
	C994.808228,1414.638550 994.980225,1419.651245 995.051880,1424.600342 
	C995.189209,1434.078613 995.199280,1443.564819 994.971313,1453.040771 
	C994.629822,1467.233154 994.039734,1481.419556 993.542297,1495.608032 
	C993.524963,1496.101807 993.414795,1496.605225 993.267944,1497.079346 
	C990.891541,1504.750366 994.001831,1511.180664 998.128113,1517.200562 
	C1001.397949,1521.970947 1001.605286,1525.814209 998.297363,1530.534058 
	C997.087463,1532.260498 995.404907,1534.204224 995.348328,1536.091064 
	C995.149292,1542.722412 995.399780,1549.383057 995.850952,1556.007446 
	C995.975891,1557.842529 996.908081,1560.216431 998.288696,1561.274902 
	C1006.744141,1567.755981 1015.661377,1573.496582 1026.238525,1576.009277 
	C1026.317139,1586.745239 1026.367310,1597.481567 1026.494019,1608.216919 
	C1026.526733,1610.977661 1025.328369,1612.075317 1022.598389,1611.907471 
	C1019.138123,1611.694702 1015.666809,1611.661743 1011.533813,1611.452393 
	C1010.536987,1611.258789 1010.216064,1611.284180 1009.904724,1611.429810 
	C1008.569580,1611.396851 1007.234497,1611.363770 1005.203247,1611.267578 
	C1004.308472,1611.234619 1004.109863,1611.264648 1003.911316,1611.294556 
	C998.604797,1611.250488 993.298218,1611.206421 987.287720,1611.080322 
	C986.414856,1610.971191 986.245911,1610.944092 986.077026,1610.916992 
	C985.957947,1604.271606 985.838806,1597.626221 985.802246,1590.383545 
	C985.875122,1589.504395 985.882629,1589.222900 985.907349,1588.941895 
	C985.823181,1586.782959 985.665466,1584.624146 985.665283,1582.465210 
	C985.650452,1423.351562 985.648132,1264.238037 985.605408,1104.393555 
	C984.961914,1103.667725 984.357727,1103.672852 983.753662,1103.677979 
	C859.897156,1187.202026 736.040710,1270.726074 611.765320,1354.670410 
	C611.299072,1355.418457 611.251709,1355.746338 611.204346,1356.074097 
	C611.255066,1379.738647 611.305725,1403.403076 611.167969,1427.759399 
	C610.634583,1428.675659 610.289551,1428.900024 609.944458,1429.124390 
	C595.623474,1412.101807 581.242554,1395.128906 567.067932,1377.985229 
	C565.538208,1376.135132 564.483337,1373.309082 564.437622,1370.912231 
	C564.190430,1357.964355 564.330811,1345.008911 564.463806,1331.406738 
	C564.727905,1330.482178 564.811279,1330.191406 564.840210,1329.885010 
	C602.843384,1304.317261 640.786377,1278.659546 678.866882,1253.207520 
	C716.395203,1228.124634 754.063660,1203.251343 791.663452,1178.275391 
	C792.472778,1177.737793 793.195068,1177.069092 793.649475,1176.707153 
	C789.133972,1165.835815 784.143372,1155.456299 780.467773,1144.630493 
	C772.859131,1122.220337 769.331604,1099.090698 770.035217,1075.343994 
	C770.147461,1071.555176 771.383911,1070.497681 774.988647,1070.538208 
	C789.649536,1070.702759 804.312988,1070.638306 819.738586,1070.697510 
	C820.702271,1070.701782 820.902954,1070.666626 821.103577,1070.631592 
	C821.448425,1073.513550 822.252258,1076.425781 822.065552,1079.272827 
	C820.555359,1102.302002 826.550781,1123.714966 835.764587,1144.464478 
	C836.288635,1145.644653 837.061096,1146.714600 837.900330,1148.147217 
	C839.228821,1147.381836 840.382690,1146.821777 841.425842,1146.101196 
	C885.684631,1115.529175 929.948242,1084.964233 974.117554,1054.263428 
	C975.557312,1053.262695 976.735779,1050.890503 976.814941,1049.103394 
	C977.124207,1042.120239 976.766724,1035.109131 977.019409,1028.121460 
	C977.138306,1024.834351 975.954956,1023.158508 973.144958,1021.479431 
	C939.700439,1001.494690 906.024353,981.868713 873.072632,961.095886 
	C836.798950,938.228882 807.517456,908.280457 787.365540,870.087280 
	C766.858032,831.220337 760.418213,789.869690 767.440430,746.595032 
	C779.513672,672.192749 821.876831,620.636353 888.506165,587.723389 
	C905.942932,579.110107 924.379822,573.395935 943.557739,570.372681 
	C948.370728,569.613953 949.290833,567.768127 949.266296,563.354797 
	C949.087219,531.203857 949.162354,499.051544 949.315186,466.213776 
	C949.647766,465.067413 949.822327,464.606903 949.996826,464.146393 
	C969.622864,464.072906 989.248901,463.962219 1008.875000,463.934845 
	C1036.655762,463.896118 1064.436523,463.918854 1092.217285,463.915314 
	C1094.358521,463.915070 1096.499756,463.915283 1099.562012,463.915283 
	C1099.562012,498.884979 1099.562012,533.407654 1099.529541,568.556274 
	C1099.718262,569.410889 1099.939697,569.639587 1100.161133,569.868225 
	C1158.333130,581.123291 1206.422241,609.318115 1241.960938,656.917603 
	C1268.042847,691.850708 1281.870483,731.579163 1282.192993,775.566650 
	C1282.211304,778.065491 1282.232666,780.564392 1282.231812,783.901733 
	C1282.263916,785.494812 1282.316895,786.249451 1282.369873,787.004028 
	C1282.338257,788.069458 1282.306519,789.134827 1282.284790,790.844727 
	C1282.321533,791.655212 1282.348267,791.821350 1282.374878,791.987427 
	C1281.804077,792.282654 1281.234009,792.834473 1280.662476,792.835938 
	C1263.268555,792.881714 1245.874512,792.873291 1227.399780,792.873291 
	C1227.399780,783.358215 1227.399780,774.162964 1227.389893,764.307495 
	C1227.393188,763.363525 1227.316040,763.106812 1227.148560,762.877136 
	C1223.735229,718.672119 1204.436035,682.966370 1169.175537,656.203552 
	C1135.411865,630.577026 1096.734375,618.126282 1054.745239,615.164795 
	C1053.598511,615.083984 1052.458618,614.908020 1050.290894,614.658447 
	C1050.290894,581.691833 1050.290894,548.794800 1050.105713,515.207275 
	C1049.673096,514.241394 1049.373779,514.162292 1049.022705,514.279480 
	C1044.647461,514.249512 1040.272339,514.219482 1034.972656,514.168091 
	C1027.370972,514.188110 1020.693542,514.229614 1014.016174,514.271179 
	C1009.322449,514.229492 1004.628662,514.187805 999.255310,514.215088 
	C998.278015,514.444397 998.161682,514.690369 998.226685,515.022095 
	C998.162048,546.016785 998.097229,577.011475 998.033386,608.006165 
	C998.029053,610.137146 998.032837,612.268127 998.032837,614.726562 
	C987.242126,615.836548 976.824890,616.487305 966.543518,618.038879 
	C923.715454,624.502197 885.382202,640.323669 855.406067,672.853760 
	C831.790039,698.481750 818.248291,728.805176 815.192261,763.450684 
	C810.674744,814.664185 829.874207,856.747009 866.313049,891.744019 
	C884.845520,909.543091 906.680054,922.806152 928.563782,935.890747 
	C960.874512,955.209900 993.375183,974.211426 1025.913086,993.802063 
	C1026.038330,994.517883 1026.060913,994.778564 1026.098755,995.037964 
	C1026.161499,995.761841 1026.224121,996.485657 1026.064941,997.924927 
	C1025.944336,1001.118591 1026.045898,1003.596802 1026.147339,1006.075073 
	C1026.214355,1025.738281 1026.281250,1045.401489 1025.964600,1065.723999 
	C1023.734009,1069.821289 1022.083496,1073.385498 1019.979797,1076.658447 
	C1018.202332,1079.424072 1018.513916,1081.625610 1020.799744,1083.672119 
	C1022.512573,1085.205566 1024.377441,1086.569092 1026.174683,1088.008179 
	C1026.250244,1099.739624 1026.325806,1111.470947 1026.053223,1123.704834 
	C1022.600098,1126.144165 1023.394531,1127.678711 1026.200195,1129.005615 
M1002.540588,1143.381958 
	C1003.766907,1142.800415 1004.993164,1142.218872 1006.219482,1141.637329 
	C1005.681213,1140.952393 1005.142944,1140.267578 1004.604675,1139.582764 
	C1003.768372,1140.773071 1002.932068,1141.963257 1002.540588,1143.381958 
z"/>
<path fill="#40ECCF" opacity="1.000000" stroke="none" 
	d="
M1105.156372,1605.926636 
	C1096.325928,1607.235962 1087.511719,1608.671021 1078.659302,1609.810303 
	C1072.774170,1610.567871 1066.834717,1610.903076 1060.006592,1611.508301 
	C1060.006592,1608.851440 1060.006592,1606.930786 1060.006714,1605.010132 
	C1060.013794,1444.390991 1060.025879,1283.771851 1059.989502,1123.152710 
	C1059.988892,1120.175293 1060.490479,1117.960693 1063.039795,1115.844482 
	C1107.645142,1078.815918 1152.143555,1041.658691 1196.677124,1004.543762 
	C1202.563232,999.638184 1208.391235,994.648865 1214.485229,990.012512 
	C1217.817505,987.477234 1217.646606,985.426208 1215.361816,982.255798 
	C1203.866211,966.303162 1190.474487,952.095398 1174.444702,940.820068 
	C1149.530762,923.295654 1124.365112,906.087463 1098.739624,889.627441 
	C1068.054688,869.917542 1036.817505,851.063782 1005.689270,832.052490 
	C1002.263550,829.960266 1001.430054,827.538940 1001.435059,823.970642 
	C1001.482422,789.815491 1001.443420,755.660156 1001.439575,721.504883 
	C1001.438538,712.341919 1001.472595,703.178955 1001.610962,693.301636 
	C1001.785095,692.376892 1001.838928,692.166443 1001.892761,691.956055 
	C1017.340881,691.956055 1032.789062,691.956055 1048.979980,691.956055 
	C1048.979980,694.254761 1048.979736,696.365356 1048.979980,698.475891 
	C1048.983887,730.475464 1049.050903,762.475403 1048.905151,794.474304 
	C1048.888550,798.131592 1050.113525,799.994446 1053.213013,801.880127 
	C1081.963379,819.371582 1110.738281,836.832153 1139.190918,854.800415 
	C1158.897827,867.245605 1178.492554,879.939453 1197.443359,893.492676 
	C1220.434570,909.935364 1241.206421,928.913818 1257.649536,952.915466 
	C1264.390991,946.835266 1271.089111,941.133972 1277.408691,935.040100 
	C1322.271729,891.780457 1367.536987,848.922852 1411.718628,804.976685 
	C1448.573120,768.318787 1484.081299,730.308594 1520.338379,693.046021 
	C1523.669189,689.622864 1523.703979,687.332214 1521.178101,683.420105 
	C1479.018799,618.120056 1426.265015,562.808472 1363.644409,516.970825 
	C1306.181030,474.908325 1242.792969,444.873383 1174.210571,425.754791 
	C1140.739014,416.423981 1106.742554,410.143921 1072.025024,407.996979 
	C1065.612183,407.600433 1059.199341,407.202271 1052.447266,406.783844 
	C1052.447266,389.095764 1052.447266,371.825134 1052.447266,354.122162 
	C1058.184204,354.122162 1064.119263,353.786224 1070.006348,354.175690 
	C1114.074341,357.091217 1157.236084,365.066437 1199.473633,377.947845 
	C1283.268433,403.503113 1358.958618,444.179962 1426.179443,500.363007 
	C1488.661377,552.585205 1539.981567,614.359741 1582.091553,683.947266 
	C1584.745728,688.333069 1584.314331,690.972412 1580.891357,694.581299 
	C1545.802490,731.576111 1510.996948,768.839783 1475.872314,805.800476 
	C1426.148682,858.123535 1374.307983,908.280396 1321.298462,957.275635 
	C1269.746826,1004.923340 1215.791992,1049.739746 1161.960083,1094.716675 
	C1143.550903,1110.097656 1124.892822,1125.180786 1105.849609,1140.970947 
	C1105.241211,1144.197021 1105.036011,1146.852051 1105.035889,1149.507202 
	C1105.027710,1272.987915 1105.030762,1396.468628 1105.049683,1519.949341 
	C1105.054077,1548.608398 1105.119141,1577.267578 1105.156372,1605.926636 
z"/>
<path fill="#40ECD0" opacity="1.000000" stroke="none" 
	d="
M649.067017,481.088226 
	C752.855835,404.596313 868.291321,361.073700 997.556213,353.239532 
	C997.556213,371.566803 997.556213,388.930267 997.556213,406.670502 
	C988.900940,407.363281 980.304871,407.958130 971.727234,408.752991 
	C914.213135,414.082611 858.961304,428.562225 805.664307,450.532562 
	C729.409668,481.966583 663.413757,528.477966 605.512878,586.981812 
	C569.114807,623.758911 537.111755,663.918457 510.219391,708.080750 
	C479.941498,757.802612 458.747742,811.409790 442.958923,867.309814 
	C433.920593,899.309753 428.506500,931.960388 424.222870,964.848694 
	C419.414703,1001.763977 420.100677,1038.762329 422.930573,1075.753784 
	C426.348022,1120.425049 434.880859,1164.130981 448.113892,1206.950928 
	C478.963470,1306.775391 532.931580,1392.560913 606.132874,1466.509033 
	C669.703430,1530.728027 744.175232,1578.090698 828.975159,1609.449097 
	C867.400635,1623.658447 906.495361,1634.979736 947.127075,1640.465942 
	C963.734192,1642.708130 980.472534,1643.978271 997.635010,1645.740356 
	C997.635010,1662.521484 997.635010,1679.761108 997.635010,1697.862549 
	C990.570984,1697.477295 983.489075,1697.309204 976.449097,1696.674561 
	C876.028259,1687.619751 783.473145,1654.714844 697.681458,1602.708618 
	C623.332642,1557.638916 560.329285,1499.670654 508.257172,1429.954956 
	C476.143555,1386.960449 448.421997,1341.367432 426.594360,1292.252075 
	C404.962921,1243.578247 390.220276,1192.876953 381.044312,1140.472290 
	C377.081665,1117.841187 374.371460,1095.078125 372.948334,1072.154175 
	C370.903046,1039.209229 370.705902,1006.240051 373.875549,973.386841 
	C384.759888,860.571228 419.191467,755.760864 481.404327,660.558472 
	C525.104370,593.685547 579.052124,536.229980 641.579956,486.692688 
	C643.929749,484.831116 646.377197,483.092865 649.067017,481.088226 
z"/>
<path fill="#40ECCF" opacity="1.000000" stroke="none" 
	d="
M1053.006104,1645.137817 
	C1087.935181,1644.043457 1122.343750,1639.083008 1156.233398,1630.700317 
	C1210.687622,1617.230713 1262.726074,1597.457275 1311.599243,1569.768677 
	C1398.315308,1520.640625 1470.486816,1455.552856 1525.578613,1372.277222 
	C1572.260986,1301.713257 1604.106812,1224.850220 1619.601440,1141.528809 
	C1623.002930,1123.237671 1624.911621,1104.642944 1626.889893,1086.122070 
	C1628.172363,1074.115234 1628.220825,1061.981201 1629.015869,1049.916870 
	C1633.457886,982.524109 1621.874512,917.175171 1603.389282,852.813171 
	C1594.874390,823.166016 1583.604492,794.451416 1570.439575,766.529968 
	C1568.852905,763.164917 1569.094360,761.063477 1571.752441,758.301331 
	C1581.456543,748.217712 1590.859985,737.843628 1600.318359,727.525757 
	C1601.544434,726.188171 1602.429688,724.538208 1604.160889,722.039917 
	C1609.094360,732.198303 1613.342407,740.623962 1617.315063,749.177612 
	C1643.288086,805.100220 1661.754150,863.355957 1671.158081,924.357178 
	C1673.539062,939.801392 1675.487061,955.335815 1676.928589,970.894165 
	C1678.152832,984.107666 1678.687134,997.409180 1678.937744,1010.682861 
	C1679.276489,1028.624634 1679.572876,1046.596313 1678.908325,1064.518921 
	C1678.345703,1079.692993 1676.917236,1094.884888 1674.923584,1109.943359 
	C1672.283447,1129.884155 1669.707764,1149.920532 1665.378784,1169.535034 
	C1648.173218,1247.492065 1619.217529,1320.819092 1575.740601,1387.977417 
	C1524.494263,1467.137207 1460.294678,1533.759644 1381.903442,1586.594604 
	C1301.031738,1641.101440 1212.310791,1675.558838 1116.347900,1691.695801 
	C1101.134888,1694.254028 1085.672607,1695.359009 1070.308350,1696.972290 
	C1064.884277,1697.541748 1059.408813,1697.621582 1053.426270,1697.624023 
	C1052.682251,1696.878296 1052.468872,1696.433594 1052.255493,1695.988892 
	C1052.230469,1679.634277 1052.205444,1663.279541 1052.365967,1646.330811 
	C1052.724976,1645.553711 1052.876465,1645.354126 1053.006104,1645.137817 
z"/>
<path fill="#1B90FD" opacity="1.000000" stroke="none" 
	d="
M1383.286133,1225.994019 
	C1383.248535,1223.618408 1383.210938,1221.242920 1383.278442,1218.229492 
	C1383.339233,1217.057373 1383.294800,1216.523071 1383.250366,1215.988892 
	C1383.224976,1207.962769 1383.199707,1199.936768 1383.333252,1191.050659 
	C1383.420410,1183.458252 1383.348511,1176.725952 1383.276611,1169.993530 
	C1383.244507,1168.920288 1383.212402,1167.847168 1383.325073,1166.071167 
	C1383.400513,1163.911133 1383.331055,1162.453735 1383.261719,1160.996460 
	C1383.238770,1142.967163 1383.215698,1124.937744 1383.350098,1106.048340 
	C1383.428467,1097.790039 1383.349487,1090.391724 1383.270508,1082.993530 
	C1383.211060,1041.676880 1383.116821,1000.360168 1383.205200,959.043823 
	C1383.209229,957.180725 1384.438843,954.887573 1385.818237,953.523804 
	C1415.195557,924.481140 1444.688965,895.555908 1474.119141,866.566650 
	C1477.405762,863.329529 1480.448364,859.844788 1483.604004,856.474792 
	C1484.075928,856.636658 1484.547729,856.798584 1485.019653,856.960510 
	C1485.019653,859.350220 1485.019653,861.739929 1485.019775,864.129639 
	C1485.027710,989.916931 1485.037842,1115.704224 1485.042358,1241.491577 
	C1485.043945,1285.642090 1484.957642,1329.792725 1485.132324,1373.942627 
	C1485.150879,1378.626343 1483.817627,1382.158936 1480.896973,1385.654419 
	C1458.426270,1412.547729 1433.866333,1437.427612 1408.256226,1461.295044 
	C1400.826294,1468.219360 1393.147583,1474.876709 1385.006226,1481.810791 
	C1384.034912,1481.957397 1383.640259,1481.949951 1383.245728,1481.942505 
	C1383.212646,1477.265503 1383.179688,1472.588501 1383.268799,1467.203369 
	C1383.339722,1465.660034 1383.288452,1464.824829 1383.237305,1463.989502 
	C1383.211914,1445.631592 1383.186523,1427.273804 1383.269775,1408.254272 
	C1383.335327,1407.058838 1383.292114,1406.525146 1383.248779,1405.991333 
	C1383.227783,1400.963135 1383.206665,1395.935059 1383.328491,1390.137573 
	C1383.401367,1387.909912 1383.331299,1386.451538 1383.261230,1384.993164 
	C1383.237793,1360.298218 1383.214233,1335.603149 1383.345215,1310.088135 
	C1383.423218,1306.843140 1383.346680,1304.418213 1383.270020,1301.993408 
	C1383.230469,1299.617310 1383.190796,1297.241089 1383.302979,1294.082520 
	C1383.389038,1291.197632 1383.323364,1289.095215 1383.257690,1286.992920 
	C1383.236450,1269.297363 1383.215210,1251.601685 1383.350464,1233.099854 
	C1383.433472,1230.193848 1383.359863,1228.093872 1383.286133,1225.994019 
z"/>
<path fill="#1B90FD" opacity="1.000000" stroke="none" 
	d="
M1292.647827,1062.135864 
	C1292.713745,1116.127686 1292.822144,1170.119385 1292.836426,1224.111206 
	C1292.862549,1323.098633 1292.833008,1422.086182 1292.827271,1521.073608 
	C1292.827148,1522.073486 1292.860352,1523.073975 1292.834473,1524.073120 
	C1292.683960,1529.886963 1294.417114,1536.824463 1291.825928,1541.196777 
	C1289.251587,1545.540649 1282.448120,1547.550781 1277.284302,1550.158813 
	C1251.103760,1563.382202 1224.465088,1575.569946 1196.649292,1585.017944 
	C1195.122314,1585.536499 1193.521362,1585.837158 1191.309937,1586.404907 
	C1191.186646,1583.905396 1191.008911,1581.984009 1191.008911,1580.062500 
	C1191.005493,1433.913818 1191.004883,1287.765137 1191.127075,1141.616577 
	C1191.129028,1139.273438 1191.926392,1135.970215 1193.570435,1134.731201 
	C1225.762207,1110.470947 1258.135010,1086.450928 1291.022461,1062.237305 
	C1291.932007,1062.107300 1292.289917,1062.121582 1292.647827,1062.135864 
z"/>
<path fill="#77F632" opacity="1.000000" stroke="none" 
	d="
M910.004761,1599.904297 
	C904.631714,1598.838257 899.154358,1598.137085 893.905090,1596.637573 
	C878.216919,1592.156250 862.655884,1587.228882 846.959778,1582.776978 
	C842.646729,1581.553711 842.927307,1578.687134 842.928894,1575.475830 
	C842.960693,1509.649780 842.979248,1443.823608 842.987915,1377.997559 
	C842.993347,1336.502075 843.137268,1295.005493 842.816040,1253.512451 
	C842.762451,1246.583252 844.604431,1242.667236 850.883850,1239.022705 
	C869.029480,1228.491211 886.588989,1216.950195 904.384338,1205.814575 
	C905.894531,1204.869507 907.446838,1203.991943 910.501038,1202.180786 
	C910.501038,1329.304932 910.501038,1455.118896 910.394836,1581.687378 
	C910.359070,1583.684448 910.429443,1584.927002 910.499817,1586.169556 
	C910.501160,1590.085693 910.502563,1594.001953 910.388306,1598.528076 
	C910.144897,1599.380005 910.055603,1599.635498 910.004761,1599.904297 
z"/>
<path fill="#78F532" opacity="1.000000" stroke="none" 
	d="
M687.031128,1423.000000 
	C687.027283,1398.009033 687.083740,1373.517822 686.946899,1349.027588 
	C686.926880,1345.450562 688.099426,1343.460083 691.176758,1341.475586 
	C716.370850,1325.229126 741.404602,1308.733887 766.498291,1292.331421 
	C768.947510,1290.730347 771.471680,1289.243896 774.630615,1287.290161 
	C774.630615,1375.917480 774.630615,1463.608154 774.630615,1552.175903 
	C772.490845,1551.261719 770.693909,1550.649414 769.042664,1549.765137 
	C741.696716,1535.121704 715.183044,1519.123901 690.303345,1500.556641 
	C688.468140,1499.187134 687.179749,1495.889648 687.156067,1493.473633 
	C686.927734,1470.150879 687.025085,1446.824951 687.031128,1423.000000 
z"/>
<path fill="#3EEDD2" opacity="1.000000" stroke="none" 
	d="
M1026.337036,1575.549316 
	C1015.661377,1573.496582 1006.744141,1567.755981 998.288696,1561.274902 
	C996.908081,1560.216431 995.975891,1557.842529 995.850952,1556.007446 
	C995.399780,1549.383057 995.149292,1542.722412 995.348328,1536.091064 
	C995.404907,1534.204224 997.087463,1532.260498 998.297363,1530.534058 
	C1001.605286,1525.814209 1001.397949,1521.970947 998.128113,1517.200562 
	C994.001831,1511.180664 990.891541,1504.750366 993.267944,1497.079346 
	C993.414795,1496.605225 993.524963,1496.101807 993.542297,1495.608032 
	C994.039734,1481.419556 994.629822,1467.233154 994.971313,1453.040771 
	C995.199280,1443.564819 995.189209,1434.078613 995.051880,1424.600342 
	C994.980225,1419.651245 994.808228,1414.638550 993.959106,1409.781006 
	C992.694275,1402.545532 993.719543,1395.775513 995.200562,1388.624512 
	C996.711182,1381.330688 995.862793,1373.526611 995.842041,1365.946411 
	C995.832092,1362.302246 995.184204,1358.662231 995.120911,1355.015137 
	C995.027283,1349.626953 997.597229,1346.177246 1003.062805,1345.176636 
	C1006.082092,1344.623901 1008.562195,1343.390625 1008.740906,1339.905273 
	C1008.943298,1335.958862 1008.476746,1332.240723 1004.533630,1329.950684 
	C996.465210,1325.264771 997.141174,1325.385254 999.146790,1316.560547 
	C1000.581177,1310.249756 1001.592590,1303.019287 999.937256,1296.982056 
	C994.686890,1277.833618 994.703979,1258.465942 995.157776,1238.973755 
	C995.262268,1234.484131 996.006714,1229.992920 995.881531,1225.518555 
	C995.715332,1219.577759 998.807556,1216.606812 1004.055481,1215.263306 
	C1007.494995,1214.382690 1010.535950,1213.159668 1010.649780,1208.972778 
	C1010.756104,1205.062622 1008.380920,1203.158813 1004.963013,1201.718994 
	C999.472839,1199.406006 995.802124,1191.264771 996.011047,1184.119141 
	C996.173645,1178.556030 995.611572,1172.974243 995.453857,1167.398315 
	C995.363525,1164.201782 995.437500,1161.000488 995.437500,1157.801392 
	C996.028198,1157.539673 996.618835,1157.278076 997.209534,1157.016357 
	C999.009888,1158.724121 1000.690247,1160.586914 1002.642090,1162.099121 
	C1004.925903,1163.868774 1007.253540,1165.884033 1009.905396,1166.811646 
	C1014.997925,1168.593140 1020.332397,1169.682861 1025.885498,1171.030518 
	C1026.299683,1192.640137 1026.469360,1214.278442 1026.477661,1235.916870 
	C1026.520508,1347.976196 1026.522095,1460.035522 1026.533569,1572.094849 
	C1026.533691,1573.093018 1026.469727,1574.091187 1026.337036,1575.549316 
z"/>
<path fill="#597A69" opacity="1.000000" stroke="none" 
	d="
M1105.276123,1605.542236 
	C1105.119141,1577.267578 1105.054077,1548.608398 1105.049683,1519.949341 
	C1105.030762,1396.468628 1105.027710,1272.987915 1105.035889,1149.507202 
	C1105.036011,1146.852051 1105.241211,1144.197021 1105.646851,1141.235596 
	C1105.947510,1293.521118 1105.954346,1446.113159 1105.933228,1598.705078 
	C1105.932983,1600.855957 1105.582764,1603.006836 1105.276123,1605.542236 
z"/>
<path fill="#3EEDD2" opacity="1.000000" stroke="none" 
	d="
M1026.266846,1087.588623 
	C1024.377441,1086.569092 1022.512573,1085.205566 1020.799744,1083.672119 
	C1018.513916,1081.625610 1018.202332,1079.424072 1019.979797,1076.658447 
	C1022.083496,1073.385498 1023.734009,1069.821289 1025.869141,1066.183472 
	C1026.224609,1073.045410 1026.291748,1080.107300 1026.266846,1087.588623 
z"/>
<path fill="#3EEDD2" opacity="1.000000" stroke="none" 
	d="
M1026.314453,1150.558838 
	C1022.092041,1147.797729 1017.966675,1144.586304 1013.841370,1141.374878 
	C1013.886841,1140.942139 1013.932312,1140.509277 1013.977844,1140.076538 
	C1017.815308,1140.076538 1021.652771,1140.076538 1025.835449,1140.038818 
	C1026.257690,1143.370239 1026.334595,1146.739380 1026.314453,1150.558838 
z"/>
<path fill="#298AE5" opacity="1.000000" stroke="none" 
	d="
M1383.197266,1083.457520 
	C1383.349487,1090.391724 1383.428467,1097.790039 1383.394287,1105.579712 
	C1383.228760,1098.621338 1383.176392,1091.271484 1383.197266,1083.457520 
z"/>
<path fill="#597A69" opacity="1.000000" stroke="none" 
	d="
M1014.407532,514.388794 
	C1020.693542,514.229614 1027.370972,514.188110 1034.508545,514.222290 
	C1028.245361,514.367432 1021.522156,514.436890 1014.407532,514.388794 
z"/>
<path fill="#298AE5" opacity="1.000000" stroke="none" 
	d="
M1383.206177,1170.457764 
	C1383.348511,1176.725952 1383.420410,1183.458252 1383.378540,1190.582275 
	C1383.221802,1184.289917 1383.178833,1177.605835 1383.206177,1170.457764 
z"/>
<path fill="#3EEDD2" opacity="1.000000" stroke="none" 
	d="
M1026.297119,1128.595459 
	C1023.394531,1127.678711 1022.600098,1126.144165 1025.958496,1124.103760 
	C1026.272583,1125.395264 1026.333252,1126.790283 1026.297119,1128.595459 
z"/>
<path fill="#3EEDD2" opacity="1.000000" stroke="none" 
	d="
M1026.238281,1005.628540 
	C1026.045898,1003.596802 1025.944336,1001.118591 1025.981934,998.281311 
	C1026.190430,1000.342163 1026.259766,1002.762085 1026.238281,1005.628540 
z"/>
<path fill="#298AE5" opacity="1.000000" stroke="none" 
	d="
M1383.197998,1302.432373 
	C1383.346680,1304.418213 1383.423218,1306.843140 1383.390259,1309.619385 
	C1383.229248,1307.604370 1383.177612,1305.237793 1383.197998,1302.432373 
z"/>
<path fill="#298AE5" opacity="1.000000" stroke="none" 
	d="
M1383.214355,1226.426025 
	C1383.359863,1228.093872 1383.433472,1230.193848 1383.397705,1232.631348 
	C1383.239868,1230.932007 1383.191284,1228.895020 1383.214355,1226.426025 
z"/>
<path fill="#298AE5" opacity="1.000000" stroke="none" 
	d="
M1383.183838,1287.425049 
	C1383.323364,1289.095215 1383.389038,1291.197632 1383.346436,1293.638672 
	C1383.195435,1291.937378 1383.152710,1289.897339 1383.183838,1287.425049 
z"/>
<path fill="#579B8D" opacity="1.000000" stroke="none" 
	d="
M610.021484,1429.309570 
	C610.289551,1428.900024 610.634583,1428.675659 611.196411,1428.227539 
	C610.974915,1428.500854 610.536682,1428.997925 610.021484,1429.309570 
z"/>
<path fill="#298AE5" opacity="1.000000" stroke="none" 
	d="
M1383.189453,1385.404297 
	C1383.331299,1386.451538 1383.401367,1387.909912 1383.371582,1389.670776 
	C1383.220337,1388.587280 1383.169067,1387.201416 1383.189453,1385.404297 
z"/>
<path fill="#298AE5" opacity="1.000000" stroke="none" 
	d="
M1383.190552,1161.407227 
	C1383.331055,1162.453735 1383.400513,1163.911133 1383.368652,1165.670410 
	C1383.218018,1164.587524 1383.168701,1163.202759 1383.190552,1161.407227 
z"/>
<path fill="#69AB49" opacity="1.000000" stroke="none" 
	d="
M910.591919,1585.743042 
	C910.429443,1584.927002 910.359070,1583.684448 910.400818,1582.146484 
	C910.570007,1583.006348 910.627014,1584.161377 910.591919,1585.743042 
z"/>
<path fill="#597A69" opacity="1.000000" stroke="none" 
	d="
M1282.454834,786.760437 
	C1282.316895,786.249451 1282.263916,785.494812 1282.285889,784.367188 
	C1282.420410,784.835022 1282.480103,785.675964 1282.454834,786.760437 
z"/>
<path fill="#298AE5" opacity="1.000000" stroke="none" 
	d="
M1383.169067,1464.360474 
	C1383.288452,1464.824829 1383.339722,1465.660034 1383.312744,1466.738037 
	C1383.190063,1466.231079 1383.145508,1465.481201 1383.169067,1464.360474 
z"/>
<path fill="#298AE5" opacity="1.000000" stroke="none" 
	d="
M1383.184937,1406.320801 
	C1383.292114,1406.525146 1383.335327,1407.058838 1383.314209,1407.786133 
	C1383.206909,1407.536499 1383.164062,1407.093384 1383.184937,1406.320801 
z"/>
<path fill="#298AE5" opacity="1.000000" stroke="none" 
	d="
M1383.293701,1482.204834 
	C1383.640259,1481.949951 1384.034912,1481.957397 1384.724609,1481.988037 
	C1384.460449,1482.163208 1383.901001,1482.315308 1383.293701,1482.204834 
z"/>
<path fill="#47D7BA" opacity="1.000000" stroke="none" 
	d="
M949.733765,464.248413 
	C949.822327,464.606903 949.647766,465.067413 949.355591,465.744171 
	C949.315552,465.423798 949.393127,464.887115 949.733765,464.248413 
z"/>
<path fill="#47D7BA" opacity="1.000000" stroke="none" 
	d="
M1052.204834,1696.269531 
	C1052.468872,1696.433594 1052.682251,1696.878296 1052.967163,1697.559448 
	C1052.743896,1697.380615 1052.449097,1696.965454 1052.204834,1696.269531 
z"/>
<path fill="#298AE5" opacity="1.000000" stroke="none" 
	d="
M1383.188843,1216.318970 
	C1383.294800,1216.523071 1383.339233,1217.057373 1383.320557,1217.785767 
	C1383.214233,1217.536377 1383.170776,1217.092651 1383.188843,1216.318970 
z"/>
<path fill="#3088D4" opacity="1.000000" stroke="none" 
	d="
M1292.589844,1061.917725 
	C1292.289917,1062.121582 1291.932007,1062.107300 1291.307617,1062.056885 
	C1291.538086,1061.913696 1292.035034,1061.806641 1292.589844,1061.917725 
z"/>
<path fill="#579B8D" opacity="1.000000" stroke="none" 
	d="
M984.063599,1103.768677 
	C984.357727,1103.672852 984.961914,1103.667725 985.590576,1103.938721 
	C985.201355,1104.096191 984.787476,1103.977783 984.063599,1103.768677 
z"/>
<path fill="#49A996" opacity="1.000000" stroke="none" 
	d="
M564.666260,1330.050171 
	C564.811279,1330.191406 564.727905,1330.482178 564.465698,1330.946533 
	C564.248718,1330.805664 564.299072,1330.498779 564.666260,1330.050171 
z"/>
<path fill="#579B8D" opacity="1.000000" stroke="none" 
	d="
M611.326416,1355.866577 
	C611.251709,1355.746338 611.299072,1355.418457 611.531128,1354.914429 
	C611.691589,1355.063965 611.602478,1355.370972 611.326416,1355.866577 
z"/>
<path fill="#49A996" opacity="1.000000" stroke="none" 
	d="
M1100.043701,569.600098 
	C1099.939697,569.639587 1099.718262,569.410889 1099.547119,569.015076 
	C1099.707031,569.009277 1099.816650,569.170654 1100.043701,569.600098 
z"/>
<path fill="#597A69" opacity="1.000000" stroke="none" 
	d="
M1049.188232,514.411865 
	C1049.373779,514.162292 1049.673096,514.241394 1050.000732,514.747314 
	C1049.823364,514.858704 1049.580933,514.714233 1049.188232,514.411865 
z"/>
<path fill="#579B8D" opacity="1.000000" stroke="none" 
	d="
M820.965271,1070.539307 
	C820.902954,1070.666626 820.702271,1070.701782 820.200684,1070.685547 
	C820.174316,1070.408447 820.483398,1070.346069 820.965271,1070.539307 
z"/>
<path fill="#49A996" opacity="1.000000" stroke="none" 
	d="
M1001.729614,692.049316 
	C1001.838928,692.166443 1001.785095,692.376892 1001.603149,692.887207 
	C1001.505493,692.838928 1001.536011,692.490723 1001.729614,692.049316 
z"/>
<path fill="#597A69" opacity="1.000000" stroke="none" 
	d="
M998.372559,514.912231 
	C998.161682,514.690369 998.278015,514.444397 998.793030,514.274536 
	C998.869446,514.465149 998.705444,514.644287 998.372559,514.912231 
z"/>
<path fill="#3EEDD2" opacity="1.000000" stroke="none" 
	d="
M1026.138916,994.773682 
	C1026.060913,994.778564 1026.038330,994.517883 1026.030884,994.125854 
	C1026.079956,994.166870 1026.129517,994.338074 1026.138916,994.773682 
z"/>
<path fill="#42F1DC" opacity="1.000000" stroke="none" 
	d="
M985.858521,1589.223633 
	C985.882629,1589.222900 985.875122,1589.504395 985.895874,1589.927490 
	C985.874512,1589.880737 985.842163,1589.692993 985.858521,1589.223633 
z"/>
<path fill="#69AB49" opacity="1.000000" stroke="none" 
	d="
M910.172241,1599.770752 
	C910.055603,1599.635498 910.144897,1599.380005 910.397583,1598.977783 
	C910.579224,1599.117065 910.518250,1599.390259 910.172241,1599.770752 
z"/>
<path fill="#579B8D" opacity="1.000000" stroke="none" 
	d="
M986.158203,1611.040771 
	C986.245911,1610.944092 986.414856,1610.971191 986.824402,1611.087402 
	C987.065063,1611.176270 986.649841,1611.303711 986.649841,1611.303711 
	C986.649841,1611.303711 986.239441,1611.164673 986.158203,1611.040771 
z"/>
<path fill="#579B8D" opacity="1.000000" stroke="none" 
	d="
M1004.047241,1611.380371 
	C1004.109863,1611.264648 1004.308472,1611.234619 1004.802490,1611.263306 
	C1005.097900,1611.322021 1004.659058,1611.502686 1004.659058,1611.502686 
	C1004.659058,1611.502686 1004.183228,1611.466309 1004.047241,1611.380371 
z"/>
<path fill="#579B8D" opacity="1.000000" stroke="none" 
	d="
M1227.105225,763.075623 
	C1227.316040,763.106812 1227.393188,763.363525 1227.331055,763.844116 
	C1227.120605,763.810547 1227.047363,763.554932 1227.105225,763.075623 
z"/>
<path fill="#579B8D" opacity="1.000000" stroke="none" 
	d="
M1010.126343,1611.526001 
	C1010.216064,1611.284180 1010.536987,1611.258789 1011.086121,1611.466309 
	C1011.304810,1611.578857 1010.829651,1611.673828 1010.829651,1611.673828 
	C1010.829651,1611.673828 1010.347900,1611.622192 1010.126343,1611.526001 
z"/>
<path fill="#47D7BA" opacity="1.000000" stroke="none" 
	d="
M1052.791992,1645.181641 
	C1052.876465,1645.354126 1052.724976,1645.553711 1052.412842,1645.863525 
	C1052.192993,1645.663086 1052.294312,1645.408081 1052.791992,1645.181641 
z"/>
<path fill="#597A69" opacity="1.000000" stroke="none" 
	d="
M1282.428589,791.868835 
	C1282.348267,791.821350 1282.321533,791.655212 1282.342285,791.241028 
	C1282.514526,791.234070 1282.545288,791.486511 1282.428589,791.868835 
z"/>
<path fill="#3EEDD2" opacity="1.000000" stroke="none" 
	d="
M1002.318176,1143.267700 
	C1002.932068,1141.963257 1003.768372,1140.773071 1004.604675,1139.582764 
	C1005.142944,1140.267578 1005.681213,1140.952393 1006.219482,1141.637329 
	C1004.993164,1142.218872 1003.766907,1142.800415 1002.318176,1143.267700 
z"/>
</svg>